<svg xmlns="http://www.w3.org/2000/svg" width="90.073" height="56.976" viewBox="0 0 90.073 56.976"><defs><style>.a{fill:#ffe026}</style></defs><path d="M88.608 26.303a6.21 6.21 0 0 0-3.678-2.112l-.688-9.336a1.41 1.41 0 0 0 1.375-1.165l.265-1.5a5.318 5.318 0 0 0-1.088-4.367 5.134 5.134 0 0 0-4.018-1.8H70.422l.5-2.858a2.711 2.711 0 0 0-.564-2.231 2.671 2.671 0 0 0-2.06-.936H17.333a3.3 3.3 0 0 0-3.159 2.67L9.665 28.243a1.41 1.41 0 1 0 2.778.49L16.952 3.16a.479.479 0 0 1 .381-.339h50.789l-4.483 25.423a1.41 1.41 0 1 0 2.778.49l.325-1.843h16.869a3.611 3.611 0 0 1 2.836 1.226 3.489 3.489 0 0 1 .787 1.971h-4.685a1.41 1.41 0 0 0-1.389 1.165l-.53 3.009a4.014 4.014 0 0 0 .828 3.3 3.936 3.936 0 0 0 3.042 1.362h1.328l-1.097 6.21h-3.724a7.406 7.406 0 0 0-1.594-3.351 7.631 7.631 0 0 0-5.976-2.666 10.855 10.855 0 0 0-9.343 6.017h-.567l1.83-10.379a1.41 1.41 0 1 0-2.778-.49l-1.917 10.869H34.555a7.407 7.407 0 0 0-1.594-3.351 7.631 7.631 0 0 0-5.977-2.666 10.855 10.855 0 0 0-9.344 6.017H9.551l.564-3.2h6.338a1.41 1.41 0 1 0 0-2.821H1.41a1.41 1.41 0 1 0 0 2.821h5.841l-.5 2.858a2.711 2.711 0 0 0 .568 2.223 2.671 2.671 0 0 0 2.06.936h7.349a7.8 7.8 0 0 0 1.63 6.36 7.631 7.631 0 0 0 5.977 2.666 10.838 10.838 0 0 0 10.237-8.687c.02-.113.036-.226.051-.339h28.554a7.8 7.8 0 0 0 1.63 6.36 7.631 7.631 0 0 0 5.977 2.666 10.838 10.838 0 0 0 10.237-8.687c.02-.113.036-.226.051-.339h4.842a1.41 1.41 0 0 0 1.389-1.165l2.653-15.043a6.536 6.536 0 0 0-1.348-5.44zM67.24 24.069l1.625-9.214h12.55l.679 9.214zM83.1 11.696l-.06.339H69.361l.564-3.2h10.851a2.362 2.362 0 0 1 1.857.794 2.478 2.478 0 0 1 .467 2.067zm-51.314 36.1a7.911 7.911 0 0 1-7.459 6.356 4.86 4.86 0 0 1-3.816-1.658 5.053 5.053 0 0 1-.991-4.208 7.911 7.911 0 0 1 7.464-6.352 4.86 4.86 0 0 1 3.816 1.658 5.053 5.053 0 0 1 .99 4.208zm46.453 0a7.911 7.911 0 0 1-7.459 6.356 4.86 4.86 0 0 1-3.816-1.658 5.053 5.053 0 0 1-.991-4.208 7.911 7.911 0 0 1 7.463-6.352 4.86 4.86 0 0 1 3.816 1.658 5.053 5.053 0 0 1 .991 4.208zm8.079-11.7H84.5a1.1 1.1 0 0 1-.878-.361 1.194 1.194 0 0 1-.211-.992l.325-1.843h3.153z"/><path d="M27.983 46.066a2.672 2.672 0 0 0-2.06-.936 3.3 3.3 0 0 0-3.159 2.67 2.711 2.711 0 0 0 .568 2.223 2.672 2.672 0 0 0 2.06.936 3.3 3.3 0 0 0 3.159-2.67 2.71 2.71 0 0 0-.568-2.223zm46.452 0a2.672 2.672 0 0 0-2.06-.936 3.294 3.294 0 0 0-3.158 2.67 2.711 2.711 0 0 0 .568 2.223 2.672 2.672 0 0 0 2.06.936 3.3 3.3 0 0 0 3.159-2.67 2.71 2.71 0 0 0-.569-2.223zm-17.546-6.953H39.018a1.41 1.41 0 0 0 0 2.821h17.871a1.41 1.41 0 0 0 0-2.821z"/><path class="a" d="M31.497 33.095H5.48a1.41 1.41 0 0 0 0 2.821h26.017a1.41 1.41 0 0 0 0-2.821zm26.932-5.674l-5.221-4.513a1.41 1.41 0 1 0-1.845 2.134l2.355 2.036H17.957a1.41 1.41 0 0 0 0 2.821h34.866l-2.909 1.927a1.41 1.41 0 1 0 1.558 2.351l6.813-4.513a1.411 1.411 0 0 0 .143-2.243z"/></svg>