<svg xmlns="http://www.w3.org/2000/svg" width="79.462" height="79.462" viewBox="0 0 79.462 79.462"><defs><style>.a{fill:#ffe026}</style></defs><path d="M66.244 33.941a5.712 5.712 0 0 0-5.706-5.706H50.053a17.225 17.225 0 0 0 4.534-9.05 6.292 6.292 0 0 0-1.515-4.866 5.469 5.469 0 0 0-4.08-1.873h-.055a5.688 5.688 0 0 0-5.7 5.658 7.262 7.262 0 0 1-2.069 2.837 16.207 16.207 0 0 1-6.177 3.613 7.568 7.568 0 0 0-3.179 2.08 20.581 20.581 0 0 1-2.144 1.976 3.194 3.194 0 0 0-1.5-.373h-9.959a3.22 3.22 0 0 0-3.216 3.216v26.56a3.219 3.219 0 0 0 3.216 3.216h9.959a3.218 3.218 0 0 0 2.812-1.66h25.413a4.874 4.874 0 0 0 4.2-7.353 4.872 4.872 0 0 0 1.66-6.639 4.871 4.871 0 0 0 1.489-6.907 5.705 5.705 0 0 0 2.502-4.729zm-5.706 2.593h-.83a1.556 1.556 0 1 0 0 3.112 1.764 1.764 0 0 1 0 3.527h-1.66a1.556 1.556 0 0 0 0 3.112 1.764 1.764 0 1 1 0 3.527h-1.66a1.556 1.556 0 1 0 0 3.112 1.764 1.764 0 1 1 0 3.527H31.38V41.413a1.556 1.556 0 1 0-3.112 0v16.6a.1.1 0 0 1-.1.1h-9.959a.1.1 0 0 1-.1-.1V31.451a.1.1 0 0 1 .1-.1h9.959a.1.1 0 0 1 .1.1v3.32a1.556 1.556 0 1 0 3.112 0v-3.32c0-.075-.006-.149-.011-.224a23.635 23.635 0 0 0 2.708-2.464 4.5 4.5 0 0 1 1.872-1.25 19.224 19.224 0 0 0 7.55-4.5c1.783-1.751 2.847-3.576 2.847-4.882a2.546 2.546 0 0 1 .758-1.822 2.61 2.61 0 0 1 1.859-.751 2.371 2.371 0 0 1 1.781.827 3.22 3.22 0 0 1 .749 2.46c-.34 3.092-2.813 6.914-6.3 9.736a1.556 1.556 0 0 0 .979 2.765h14.366a2.594 2.594 0 0 1 0 5.187z"/><path d="M23.184 51.456a1.564 1.564 0 1 0 1.564 1.564 1.57 1.57 0 0 0-1.564-1.564z"/><path class="a" d="M69.021 12.881a40.101 40.101 0 0 0-2.44-2.44 1.556 1.556 0 1 0-2.1 2.293c.389.357.776.728 1.15 1.1s.745.761 1.1 1.15a1.556 1.556 0 0 0 2.293-2.1zm-7.968-6.687A39.738 39.738 0 0 0 9.301 65.278a1.556 1.556 0 0 0 2.381-2 36.626 36.626 0 0 1 47.7-54.455 1.556 1.556 0 0 0 1.672-2.625zm12.211 12.214a1.556 1.556 0 1 0-2.625 1.672 36.626 36.626 0 0 1-54.455 47.7 1.556 1.556 0 0 0-2 2.381 39.578 39.578 0 0 0 25.538 9.3q.812 0 1.628-.033a39.741 39.741 0 0 0 31.914-61.02z"/></svg>