<svg xmlns="http://www.w3.org/2000/svg" width="14.738" height="11.054" viewBox="0 0 14.738 11.054"><defs><style>.a{fill:red;}</style></defs><g transform="translate(0 -64)"><g transform="translate(0 64)"><g transform="translate(0 0)"><path class="a" d="M7.022,64.9c2.023,1.713,5.572,4.727,6.615,5.667a.616.616,0,0,0,.891,0c1.044-.941,4.593-3.955,6.616-5.668a.307.307,0,0,0,.043-.424A1.219,1.219,0,0,0,20.225,64H7.943a1.219,1.219,0,0,0-.964.473A.307.307,0,0,0,7.022,64.9Z" transform="translate(-6.715 -64)"/><path class="a" d="M343.164,126.44a.306.306,0,0,0-.327.044c-1.325,1.123-3.07,2.607-4.387,3.739a.307.307,0,0,0,.008.472c1.223.98,3.066,2.327,4.4,3.285a.307.307,0,0,0,.486-.249v-7.013A.307.307,0,0,0,343.164,126.44Z" transform="translate(-328.604 -124.615)"/><path class="a" d="M.486,133.989c1.331-.958,3.175-2.305,4.4-3.285a.307.307,0,0,0,.008-.472C3.576,129.1,1.83,127.616.506,126.493a.307.307,0,0,0-.506.234v7.013a.307.307,0,0,0,.486.249Z" transform="translate(0 -124.624)"/><path class="a" d="M22.737,288.466c-1.285-.92-3.653-2.634-5.067-3.781a.308.308,0,0,0-.4.007c-.277.242-.509.446-.674.594a1.243,1.243,0,0,1-1.714,0c-.164-.148-.4-.352-.673-.593a.306.306,0,0,0-.395-.007c-1.409,1.143-3.779,2.86-5.067,3.781a.307.307,0,0,0-.046.459,1.23,1.23,0,0,0,.9.394H21.885a1.232,1.232,0,0,0,.9-.394.307.307,0,0,0-.046-.459Z" transform="translate(-8.375 -278.265)"/></g></g></g></svg>