<svg xmlns="http://www.w3.org/2000/svg" width="14.738" height="11.054" viewBox="0 0 14.738 11.054"><defs><style>.a{fill:red}</style></defs><path class="a" d="M.307.9C2.33 2.613 5.879 5.627 6.922 6.567a.616.616 0 0 0 .891 0c1.044-.941 4.593-3.955 6.616-5.668a.307.307 0 0 0 .043-.424A1.219 1.219 0 0 0 13.51 0H1.228a1.219 1.219 0 0 0-.964.473A.307.307 0 0 0 .307.9zm14.253.925a.306.306 0 0 0-.327.044 919.955 919.955 0 0 0-4.387 3.739.307.307 0 0 0 .008.472c1.223.98 3.066 2.327 4.4 3.285a.307.307 0 0 0 .486-.249V2.103a.307.307 0 0 0-.18-.278zM.486 9.365c1.331-.958 3.175-2.305 4.4-3.285a.307.307 0 0 0 .008-.472A1031.32 1031.32 0 0 0 .506 1.869.307.307 0 0 0 0 2.103v7.013a.307.307 0 0 0 .486.249z"/><path class="a" d="M14.362 10.201c-1.285-.92-3.653-2.634-5.067-3.781a.308.308 0 0 0-.4.007c-.277.242-.509.446-.674.594a1.243 1.243 0 0 1-1.714 0c-.164-.148-.4-.352-.673-.593a.306.306 0 0 0-.395-.007C4.03 7.564 1.66 9.281.372 10.202a.307.307 0 0 0-.046.459 1.23 1.23 0 0 0 .9.394H13.51a1.232 1.232 0 0 0 .9-.394.307.307 0 0 0-.046-.459z"/></svg>