<svg xmlns="http://www.w3.org/2000/svg" width="83.207" height="66.57" viewBox="0 0 83.207 66.57">
    <defs>
        <style>.a{fill:#ffe026;}</style>
    </defs>
    <g transform="translate(0.001 0.004)">
        <path class="a" d="M829.508,1440.72h5.547v2.774h-5.547Z" transform="translate(-805.933 -1414.376)"/>
        <path class="a" d="M392.925,1004.14h5.547v2.774h-5.547Z" transform="translate(-383.218 -991.661)"/>
        <path class="a" d="M305.608,1266.09h8.321v2.774h-8.321Z" transform="translate(-298.675 -1245.29)"/>
        <path class="a" d="M305.608,1528.04h8.321v2.773h-8.321Z" transform="translate(-298.675 -1498.92)"/>
        <path d="M170.523,627.858v-5.547a1.387,1.387,0,0,0-1.387-1.387H138.627V612.6a1.387,1.387,0,0,0-1.387-1.387H91.477A1.387,1.387,0,0,0,90.09,612.6v40.22a1.387,1.387,0,0,0-1.387,1.387v4.549a2.773,2.773,0,0,0-1.387,2.385v4.16a2.782,2.782,0,0,0,2.774,2.774h4.16a9.708,9.708,0,1,0,19.415,0h30.509a9.707,9.707,0,1,0,19.415,0h4.16a2.782,2.782,0,0,0,2.774-2.774v-4.16a2.774,2.774,0,0,0-1.387-2.385V647.273a1.387,1.387,0,0,0-1.387-1.387h-1.484l-1.193-16.641h4.063a1.387,1.387,0,0,0,1.388-1.387Zm-31.9,1.387h5.547v29.122h-5.547ZM92.864,613.99h42.99v38.83H92.864Zm42.99,41.6v2.774H133.94l1.387-2.774Zm-3.633,0-1.387,2.774h-2.441l1.387-2.774Zm-5.547,0-1.387,2.774h-2.441l1.387-2.774Zm-5.547,0-1.387,2.774H117.3l1.387-2.774Zm-5.547,0-1.387,2.774h-2.441l1.387-2.774Zm-5.547,0-1.387,2.774H106.2l1.387-2.774Zm-5.547,0-1.387,2.774h-2.441l1.387-2.774Zm-5.547,0-1.387,2.774H95.11L96.5,655.59Zm-7.461,0h1.914L92,658.367h-.527ZM90.09,665.3v-4.16h7.086a9.8,9.8,0,0,0-2.524,4.16Zm13.868,9.707a6.934,6.934,0,1,1,6.934-6.934,6.934,6.934,0,0,1-6.934,6.934Zm9.305-9.707a9.8,9.8,0,0,0-2.524-4.16H147.1a9.8,9.8,0,0,0-2.524,4.16Zm40.619,9.707a6.934,6.934,0,1,1,6.934-6.934,6.934,6.934,0,0,1-6.934,6.934ZM167.75,665.3h-4.562a9.8,9.8,0,0,0-2.524-4.16h7.086Zm-1.387-16.641v9.707H146.948v-9.707Zm-19.415-2.773V629.245H162.3l1.193,16.641Zm20.8-19.415H138.627V623.7h29.122Z"
              transform="translate(-87.317 -611.217)"/>
        <path class="a"
              d="M681.224,873.167H656.262a1.387,1.387,0,0,0-1.387,1.387v24.962a1.387,1.387,0,0,0,1.387,1.387h24.962a1.387,1.387,0,0,0,1.387-1.387V874.553a1.387,1.387,0,0,0-1.387-1.386Zm-13.868,2.774h2.774v4.465l-2.774.693Zm-9.707,0h6.934v1.387h-6.934Zm22.188,22.188H657.649V880.1h6.934v2.774a1.383,1.383,0,0,0,1.72,1.345l5.547-1.387a1.387,1.387,0,0,0,1.054-1.345V880.1h6.934Zm0-20.8H672.9V875.94h6.934Z"
              transform="translate(-636.847 -864.846)"/>
        <path d="M2056.1,2270.23a4.16,4.16,0,1,0,4.16,4.16,4.16,4.16,0,0,0-4.16-4.16Zm0,5.547a1.382,1.382,0,1,1,.981-.4,1.387,1.387,0,0,1-.981.4Z"
              transform="translate(-1989.537 -2217.536)"/>
        <path d="M484.4,2270.23a4.16,4.16,0,1,0,4.16,4.16,4.16,4.16,0,0,0-4.16-4.16Zm0,5.547a1.383,1.383,0,1,1,.982-.4,1.387,1.387,0,0,1-.982.4Z"
              transform="translate(-467.761 -2217.536)"/>
    </g>
</svg>
