<svg xmlns="http://www.w3.org/2000/svg" width="74.576" height="74.786" viewBox="0 0 74.576 74.786"><defs><style>.a{fill:#ffe75b;}</style></defs><path d="M62.41,321.528a4.1,4.1,0,0,0-3.125,1.441,4.1,4.1,0,0,0-.914-.795,28.214,28.214,0,0,0,2.968-3.689l-2.068-1.394A25.656,25.656,0,0,1,55.4,321.6a4.1,4.1,0,0,0-2.361,1.359,4.106,4.106,0,0,0-6.662.606,3.742,3.742,0,0,0-3.327-2.037h-6.84a9.622,9.622,0,0,0-7.625-3.739h-2.23a9.621,9.621,0,0,0-6.726,2.732,25.65,25.65,0,0,1-3.524-4.616l-2.141,1.278a28.126,28.126,0,0,0,3.2,4.346h-6.52v-1.246A1.246,1.246,0,0,0,9.4,319.035H1.92a1.246,1.246,0,0,0-1.246,1.246v19.943a1.246,1.246,0,0,0,1.246,1.246H19.37a1.246,1.246,0,0,0,1.246-1.246v-1.056l16.027,2.29a1.244,1.244,0,0,0,.176.012,1.271,1.271,0,0,0,.138-.008l22.436-2.493a1.246,1.246,0,0,0,.93-.6l3.759-6.232a1.251,1.251,0,0,0,.078-.153l2.029-4.733a4.111,4.111,0,0,0-3.779-5.73ZM8.153,338.978H3.167v-17.45H8.153Zm38.037-8.725L46.3,330a1.249,1.249,0,0,0,.381-.475,27.985,27.985,0,0,0,4.06-1.672l-1.029,2.4Zm7.09-2,1.125-2.625q1.038-.744,2.008-1.584a1.616,1.616,0,0,1,1.233,2.234l.016.007-1.7,3.97H52.421Zm-3.352-4.23a1.59,1.59,0,0,1,1.328.7,25.518,25.518,0,0,1-3.436,1.732L48.44,325A1.616,1.616,0,0,1,49.927,324.021Zm-21.34-3.739a7.137,7.137,0,0,1,5.95,3.184,1.247,1.247,0,0,0,1.037.555h7.479a1.248,1.248,0,0,1,1.246,1.246v2.347c-.206.052-.414.1-.622.146H41.806a1.245,1.245,0,0,0-.974.471,25.436,25.436,0,0,1-19.385-5.995,7.133,7.133,0,0,1,4.91-1.955Zm-10.463,18.7H10.645V324.021h7.479Zm45.773-12.7L61.9,330.929l-3.4,5.631L36.84,338.968l-16.223-2.318V324.782a28.021,28.021,0,0,0,21.062,5.861l1.739,1.739a1.247,1.247,0,0,0,.881.365H56.782a1.246,1.246,0,0,0,1.146-.755l3-6.989a1.618,1.618,0,0,1,2.974,1.274Z" transform="translate(-0.674 -266.685)"/><path d="M121.288,0h-17.45a1.246,1.246,0,0,0-1.246,1.246V2.3L86.565.013a1.238,1.238,0,0,0-.314,0L63.815,2.5a1.247,1.247,0,0,0-.93.6L59.127,9.328a1.247,1.247,0,0,0-.078.153L57.02,14.214a4.11,4.11,0,0,0,6.9,4.289,4.1,4.1,0,0,0,1.046.876A28.055,28.055,0,0,0,59.877,26.9l2.263,1.045a25.568,25.568,0,0,1,5.943-8.135,4.1,4.1,0,0,0,2.082-1.3,4.108,4.108,0,0,0,6.663-.608,3.743,3.743,0,0,0,3.328,2.038H87a9.622,9.622,0,0,0,7.625,3.739h2.23a9.621,9.621,0,0,0,6.834-2.84,25.564,25.564,0,0,1,4.879,7.1l2.264-1.045a28.058,28.058,0,0,0-4.574-6.956h6.31V21.19a1.246,1.246,0,0,0,1.246,1.246h7.479a1.246,1.246,0,0,0,1.246-1.246V1.247A1.246,1.246,0,0,0,121.289,0h0ZM60.8,17.45A1.618,1.618,0,0,1,59.311,15.2l1.994-4.654,3.4-5.631L86.369,2.5l16.223,2.318v11.7c-.623-.485-1.264-.949-1.93-1.383A27.937,27.937,0,0,0,85.353,10.6a28.278,28.278,0,0,0-3.8.257L79.791,9.091a1.247,1.247,0,0,0-.881-.365H66.426a1.246,1.246,0,0,0-1.146.755l-3,6.989a1.616,1.616,0,0,1-1.487.98Zm6.187,0A1.615,1.615,0,0,1,65.563,15.2l-.016-.007,1.7-3.97h3.539l-.858,2-1.222,2.851q-.889.656-1.723,1.375ZM73.5,11.218h3.52l-.109.255a1.248,1.248,0,0,0-.411.55,27.849,27.849,0,0,0-4.086,1.731Zm-.218,6.232a1.588,1.588,0,0,1-1.262-.609,25.4,25.4,0,0,1,3.326-1.717l-.576,1.346a1.615,1.615,0,0,1-1.487.98Zm21.34,3.739a7.136,7.136,0,0,1-5.95-3.184,1.246,1.246,0,0,0-1.037-.555H80.156A1.248,1.248,0,0,1,78.91,16.2v-2.3c.272-.071.545-.136.821-.2H81.4a1.247,1.247,0,0,0,.955-.446,25.8,25.8,0,0,1,3-.177A25.449,25.449,0,0,1,99.3,17.226a25.755,25.755,0,0,1,2.561,1.913,7.132,7.132,0,0,1-5.01,2.051Zm10.463-3.739V2.493h7.479V17.45Zm14.957,2.493h-4.986V2.493h4.986Z" transform="translate(-47.96 0)"/><path class="a" d="M110.8,181.169l-3.63-1.879A31.32,31.32,0,0,0,93.237,176h-4.35a21.121,21.121,0,0,0-11.754,3.559l-2.14,1.427h-7.1A11.231,11.231,0,0,0,56.674,192.2v1.246A1.246,1.246,0,0,0,57.92,194.7H65.4a6.225,6.225,0,0,0,9.965,0H100.3a6.225,6.225,0,0,0,9.965,0h1.075a6.222,6.222,0,0,0,5.189-2.776l1.01-1.521a1.248,1.248,0,0,0,.208-.689A8.739,8.739,0,0,0,110.8,181.169ZM95.313,185.02v1.761L90.975,192.2H81.6V183.48h12.94Zm.77-4.034,1.107-2.214a28.861,28.861,0,0,1,7.731,2.214Zm-7.2-2.493h4.35c.43,0,.86.013,1.289.032l-1.23,2.46H79.563A18.627,18.627,0,0,1,88.887,178.494Zm-18.5,16.2a3.739,3.739,0,1,1,3.739-3.739A3.739,3.739,0,0,1,70.385,194.7Zm0-9.971a6.234,6.234,0,0,0-6.107,7.479H59.167a8.7,8.7,0,0,1,.365-2.493H61.66v-2.493h-.922a8.719,8.719,0,0,1,7.154-3.739H79.11V192.2H76.492a6.234,6.234,0,0,0-6.107-7.479Zm34.9,9.971a3.739,3.739,0,1,1,3.739-3.739A3.739,3.739,0,0,1,105.285,194.7Zm9.171-4.157a3.731,3.731,0,0,1-3.064,1.662,6.232,6.232,0,1,0-12.214,0H94.167L97.533,188a1.246,1.246,0,0,0,.273-.779v-2.493a1.246,1.246,0,0,0-.132-.557l-.344-.689h11.694A6.225,6.225,0,0,1,114,185.972h-2.488v2.493h3.614a6.211,6.211,0,0,1,.115.886Z" transform="translate(-47.949 -148.58)"/></svg>