<svg xmlns="http://www.w3.org/2000/svg" width="79.462" height="79.462" viewBox="0 0 79.462 79.462"><defs><style>.a{fill:#ffe026;}</style></defs><g transform="translate(14.989 12.446)"><path d="M179.522,136.828a5.712,5.712,0,0,0-5.706-5.706H163.331a17.225,17.225,0,0,0,4.534-9.05,6.292,6.292,0,0,0-1.515-4.866,5.469,5.469,0,0,0-4.08-1.873h-.055a5.688,5.688,0,0,0-5.7,5.658,7.262,7.262,0,0,1-2.069,2.837,16.207,16.207,0,0,1-6.177,3.613,7.568,7.568,0,0,0-3.179,2.08,20.581,20.581,0,0,1-2.144,1.976,3.194,3.194,0,0,0-1.5-.373h-9.959a3.22,3.22,0,0,0-3.216,3.216V160.9a3.219,3.219,0,0,0,3.216,3.216h9.959a3.218,3.218,0,0,0,2.812-1.66h25.413a4.874,4.874,0,0,0,4.2-7.353,4.872,4.872,0,0,0,1.66-6.639,4.871,4.871,0,0,0,1.489-6.907A5.705,5.705,0,0,0,179.522,136.828Zm-5.706,2.593h-.83a1.556,1.556,0,1,0,0,3.112,1.764,1.764,0,0,1,0,3.527h-1.66a1.556,1.556,0,0,0,0,3.112,1.764,1.764,0,1,1,0,3.527h-1.66a1.556,1.556,0,1,0,0,3.112,1.764,1.764,0,1,1,0,3.527H144.658V144.3a1.556,1.556,0,1,0-3.112,0v16.6a.1.1,0,0,1-.1.1h-9.959a.1.1,0,0,1-.1-.1V134.338a.1.1,0,0,1,.1-.1h9.959a.1.1,0,0,1,.1.1v3.32a1.556,1.556,0,1,0,3.112,0v-3.32c0-.075-.006-.149-.011-.224a23.635,23.635,0,0,0,2.708-2.464,4.5,4.5,0,0,1,1.872-1.25,19.224,19.224,0,0,0,7.55-4.5c1.783-1.751,2.847-3.576,2.847-4.882a2.546,2.546,0,0,1,.758-1.822,2.61,2.61,0,0,1,1.859-.751,2.371,2.371,0,0,1,1.781.827,3.22,3.22,0,0,1,.749,2.46c-.34,3.092-2.813,6.914-6.3,9.736a1.556,1.556,0,0,0,.979,2.765h14.366a2.593,2.593,0,0,1,0,5.187Z" transform="translate(-128.267 -115.333)"/></g><g transform="translate(21.62 51.456)"><path d="M163.994,316.306a1.564,1.564,0,1,0,1.564,1.564A1.57,1.57,0,0,0,163.994,316.306Z" transform="translate(-162.43 -316.306)"/></g><g transform="translate(63.972 10.031)"><path class="a" d="M385.672,105.74c-.387-.422-.789-.841-1.194-1.246s-.825-.807-1.246-1.194a1.556,1.556,0,1,0-2.1,2.293c.389.357.776.728,1.15,1.1s.745.761,1.1,1.15a1.556,1.556,0,0,0,2.293-2.1Z" transform="translate(-380.623 -102.89)"/></g><g transform="translate(0 0)"><path class="a" d="M112.1,57.406A39.738,39.738,0,0,0,60.348,116.49a1.556,1.556,0,0,0,2.381-2,36.626,36.626,0,0,1,47.7-54.455,1.556,1.556,0,0,0,1.672-2.625Z" transform="translate(-51.047 -51.212)"/></g><g transform="translate(13.63 17.687)"><path class="a" d="M180.9,143.053a1.556,1.556,0,1,0-2.625,1.672,36.626,36.626,0,0,1-54.455,47.7,1.556,1.556,0,0,0-2,2.381,39.578,39.578,0,0,0,25.538,9.3q.812,0,1.628-.033A39.741,39.741,0,0,0,180.9,143.053Z" transform="translate(-121.266 -142.332)"/></g></svg>