<svg xmlns="http://www.w3.org/2000/svg" width="13.86" height="13.889" viewBox="0 0 13.86 13.889">
    <defs>
        <style>.a{fill:#878787;}</style>
    </defs>
    <g transform="translate(-0.539)">
        <g transform="translate(0.539 0)">
            <path class="a"
                  d="M14.035,10.193,12.1,8.255a1.289,1.289,0,0,0-2.146.485,1.319,1.319,0,0,1-1.523.831,5.977,5.977,0,0,1-3.6-3.6A1.255,1.255,0,0,1,5.66,4.448,1.289,1.289,0,0,0,6.144,2.3L4.206.363a1.383,1.383,0,0,0-1.869,0L1.022,1.679C-.294,3.063,1.16,6.732,4.413,9.985s6.922,4.776,8.307,3.392l1.315-1.315A1.382,1.382,0,0,0,14.035,10.193Z"
                  transform="translate(-0.539 0)"/>
        </g>
    </g>
</svg>
