<svg xmlns="http://www.w3.org/2000/svg" width="12.697" height="15.218" viewBox="0 0 12.697 15.218"><defs><style>.a{fill:#878787;}</style></defs><g transform="translate(0 0)"><path class="a" d="M90.7,7.331a3.547,3.547,0,0,0,2.592-1.074,3.546,3.546,0,0,0,1.074-2.592,3.547,3.547,0,0,0-1.074-2.592,3.665,3.665,0,0,0-5.183,0,3.547,3.547,0,0,0-1.074,2.591,3.546,3.546,0,0,0,1.074,2.592A3.547,3.547,0,0,0,90.7,7.331Zm0,0" transform="translate(-84.445 0)"/><path class="a" d="M12.666,251.667a9.054,9.054,0,0,0-.123-.962,7.577,7.577,0,0,0-.237-.967,4.776,4.776,0,0,0-.4-.9,3.4,3.4,0,0,0-.6-.781,2.642,2.642,0,0,0-.861-.541,2.975,2.975,0,0,0-1.1-.2,1.116,1.116,0,0,0-.6.253c-.179.116-.387.251-.621.4a3.557,3.557,0,0,1-.8.354,3.118,3.118,0,0,1-1.964,0,3.547,3.547,0,0,1-.8-.354c-.231-.148-.44-.282-.621-.4a1.114,1.114,0,0,0-.6-.253,2.972,2.972,0,0,0-1.1.2,2.64,2.64,0,0,0-.861.541,3.4,3.4,0,0,0-.6.781,4.785,4.785,0,0,0-.4.9,7.594,7.594,0,0,0-.236.967,9.021,9.021,0,0,0-.123.962c-.02.291-.03.593-.03.9a2.527,2.527,0,0,0,.751,1.912,2.7,2.7,0,0,0,1.934.705h7.328a2.7,2.7,0,0,0,1.934-.705,2.526,2.526,0,0,0,.751-1.912c0-.307-.01-.609-.031-.9Zm0,0" transform="translate(0 -239.965)"/></g></svg>