<svg xmlns="http://www.w3.org/2000/svg" width="180.802" height="52.353" viewBox="0 0 180.802 52.353"><path d="M13.993.514l5.16 18.231h.085L24.3.514h13.955v34.343H28.243V10.304h-.12l-6.492 24.553H14.95L8.235 10.304h-.1v24.553H0V.514zm53.052 0l10.781 34.343H66.994l-1.811-6.834h-9.449l-1.845 6.834h-8.543L55.939.514zm-3.827 20.144l-2.734-10.044-2.734 10.061zM103.267.514v21.494a31.062 31.062 0 0 1-.444 6.2 9.466 9.466 0 0 1-1.555 3.588 8.218 8.218 0 0 1-3.605 2.682 16.044 16.044 0 0 1-5.792.888h-2.495a10.67 10.67 0 0 1-2.067-.205l-2.46-.5v-8.1c.735.188 1.452.308 2.136.427a12.3 12.3 0 0 0 1.828.154 5.126 5.126 0 0 0 1.914-.325 2.836 2.836 0 0 0 1.3-1.076 4.459 4.459 0 0 0 .564-1.572 14.812 14.812 0 0 0 .188-2.495V.514zm23.407-.513a17.974 17.974 0 0 1 6.219 1.042 14.335 14.335 0 0 1 4.887 2.922 15.377 15.377 0 0 1 3.827 5.673 21.152 21.152 0 0 1 1.435 8.047 22.638 22.638 0 0 1-1.23 7.347 15.617 15.617 0 0 1-3.229 5.724 13.823 13.823 0 0 1-5.126 3.417 18.265 18.265 0 0 1-6.732 1.2 18.555 18.555 0 0 1-6.185-.974 13.976 13.976 0 0 1-4.938-3.075 15.583 15.583 0 0 1-3.964-5.912 21.425 21.425 0 0 1-1.281-7.723 20.9 20.9 0 0 1 1.538-8.341 15.275 15.275 0 0 1 4.289-5.929 14.933 14.933 0 0 1 4.613-2.495 17.718 17.718 0 0 1 5.877-.923zm0 7.5a3.861 3.861 0 0 0-2.375.735 5.28 5.28 0 0 0-1.708 2.065 11.312 11.312 0 0 0-.837 2.87 25.476 25.476 0 0 0-.325 4.306 26.43 26.43 0 0 0 .325 4.357 11.823 11.823 0 0 0 .837 2.956 5.707 5.707 0 0 0 1.709 2.119 4.1 4.1 0 0 0 4.733 0 5.348 5.348 0 0 0 1.709-2.119 10.525 10.525 0 0 0 .82-2.939 25.952 25.952 0 0 0 .323-4.35 25.011 25.011 0 0 0-.325-4.306 10.08 10.08 0 0 0-.906-2.939 5.262 5.262 0 0 0-1.709-2.067 3.844 3.844 0 0 0-2.29-.683zM150.048.513h17.393a19.973 19.973 0 0 1 5.912.786 9.517 9.517 0 0 1 4.135 2.46 9.107 9.107 0 0 1 1.914 3.075 11.106 11.106 0 0 1 .7 4 10.405 10.405 0 0 1-1.606 5.912 8.423 8.423 0 0 1-4.323 3.417l6.629 14.779H169.15l-5.022-12.829h-3.52v12.744h-10.56zm10.559 7.5v6.58h4.8a5.9 5.9 0 0 0 1.862-.256 3.417 3.417 0 0 0 1.213-.666 3.041 3.041 0 0 0 .752-1.008 3.2 3.2 0 0 0 .256-1.316 3.417 3.417 0 0 0-.239-1.3 2.751 2.751 0 0 0-.666-.991 3.075 3.075 0 0 0-1.3-.752 6.612 6.612 0 0 0-1.965-.256zM4.049 51.259h-.632L2.9 49.772H1l-.436 1.487H0l1.709-5.126h.683zm-1.3-1.948l-.786-2.495-.784 2.427zm5.999 1.948v-5.128h2a1.5 1.5 0 0 1 1.128.376 1.179 1.179 0 0 1 .359.854 1.128 1.128 0 0 1-.907 1.147 1.435 1.435 0 0 1 .8.5 1.3 1.3 0 0 1 .256.8 1.35 1.35 0 0 1-.41 1.008 1.709 1.709 0 0 1-1.247.41zm.615-2.888h1.111a1.213 1.213 0 0 0 .923-.256.923.923 0 0 0 .222-.615.7.7 0 0 0-.239-.564 1.093 1.093 0 0 0-.735-.222h-1.3zm0 2.341h1.365a1.145 1.145 0 0 0 .769-.239.82.82 0 0 0 .273-.632 1.111 1.111 0 0 0-.12-.513.871.871 0 0 0-.342-.359 1.384 1.384 0 0 0-.666-.12h-1.3zm9.431.547h-.632v-4.562h-1.435v-.564h3.554v.564h-1.487zm7.723 0a1.709 1.709 0 0 1-1.521-.752 3.11 3.11 0 0 1-.547-1.862 3.058 3.058 0 0 1 .564-1.9 1.914 1.914 0 0 1 3.024 0 2.956 2.956 0 0 1 .564 1.862 3.229 3.229 0 0 1-.547 1.879 1.709 1.709 0 0 1-1.537.773zm0-.513a1.162 1.162 0 0 0 1.042-.615 2.87 2.87 0 0 0 .38-1.55 2.614 2.614 0 0 0-.393-1.521 1.213 1.213 0 0 0-1.042-.547 1.162 1.162 0 0 0-1.025.6 2.768 2.768 0 0 0-.376 1.538 2.717 2.717 0 0 0 .376 1.521 1.179 1.179 0 0 0 1.059.632zm11.977.513h-.615v-4.494L36.17 51.19h-.29l-1.708-4.425v4.494h-.53v-5.126h.94l1.538 4.049 1.469-4.049h.94zm7.057 0a1.709 1.709 0 0 1-1.518-.751 3.127 3.127 0 0 1-.547-1.862 3.024 3.024 0 0 1 .581-1.9 1.9 1.9 0 0 1 3.024 0 2.956 2.956 0 0 1 .564 1.862 3.229 3.229 0 0 1-.547 1.879 1.709 1.709 0 0 1-1.555.769zm0-.513a1.162 1.162 0 0 0 1.042-.615 2.87 2.87 0 0 0 .376-1.555 2.614 2.614 0 0 0-.393-1.521 1.2 1.2 0 0 0-1.042-.547 1.179 1.179 0 0 0-1.025.6 2.768 2.768 0 0 0-.376 1.538 2.7 2.7 0 0 0 .393 1.521 1.179 1.179 0 0 0 1.025.632zm7.073.513v-5.126h2.922v.564h-2.307v1.536h.906a3.946 3.946 0 0 1 1.076.12 1.059 1.059 0 0 1 .615.5 1.709 1.709 0 0 1 .239.923 1.4 1.4 0 0 1-.41 1.059 1.709 1.709 0 0 1-1.247.393zm.615-.564h1.162c.7 0 1.042-.308 1.042-.94a.888.888 0 0 0-.256-.7 1.333 1.333 0 0 0-.871-.222h-1.077zm8.458.085v.478h-.632v-5.125h.632v3.93a9.686 9.686 0 0 1 .628-.974l1.828-2.477v-.479h.632v5.126h-.632v-3.926a7.108 7.108 0 0 1-.632.974zm8.355.479h-.6l1.711-5.126h.906l1.709 5.126h-.7l-1.334-4.391h-.188zm8.287 0v-5.126h.632v2.016h.82a3.127 3.127 0 0 1 1.179.154 1.179 1.179 0 0 1 .547.513 1.709 1.709 0 0 1 .205.871 1.486 1.486 0 0 1-.41 1.128 1.709 1.709 0 0 1-1.247.393zm.632-.564h1.093a1.094 1.094 0 0 0 .8-.256.991.991 0 0 0 .239-.718c0-.632-.342-.957-1.042-.957h-1.09zm11.191.564h-.632v-2.478h-2.392v2.477h-.632v-5.125h.632v2.1h2.392v-2.1h.632zm5.365 0v-5.126h.632v2.016h.82a3.144 3.144 0 0 1 1.179.154 1.2 1.2 0 0 1 .547.513 1.709 1.709 0 0 1 .205.871 1.486 1.486 0 0 1-.41 1.128 1.709 1.709 0 0 1-1.247.393zm.632-.564h1.093a1.093 1.093 0 0 0 .8-.256 1.008 1.008 0 0 0 .239-.718c0-.632-.342-.957-1.042-.957h-1.09zm3.417.564v-5.126h.632v5.126zm6.698-.478v.478h-.632v-5.126h.632v3.93a9.687 9.687 0 0 1 .632-.974l1.828-2.477v-.478h.615v5.126h-.632v-3.93a7.141 7.141 0 0 1-.632.974zm.1-6.1h.427a.6.6 0 0 0 .666.5c.41 0 .632-.171.7-.5h.427a.991.991 0 0 1-1.059.957 1.025 1.025 0 0 1-1.162-.974zm23.222 1.452l-1.452 2.324 1.709 2.8h-.718l-1.333-2.224-1.367 2.221h-.6l1.709-2.631-1.485-2.49h.718l1.11 1.879 1.145-1.879zm6.492 5.126a1.709 1.709 0 0 1-1.521-.752 3.144 3.144 0 0 1-.547-1.862 3.058 3.058 0 0 1 .564-1.9 1.914 1.914 0 0 1 3.024 0 2.956 2.956 0 0 1 .564 1.862 3.212 3.212 0 0 1-.547 1.879 1.709 1.709 0 0 1-1.538.769zm0-.513a1.162 1.162 0 0 0 1.042-.615 2.87 2.87 0 0 0 .376-1.555 2.614 2.614 0 0 0-.393-1.521 1.213 1.213 0 0 0-1.042-.547 1.162 1.162 0 0 0-1.025.6 2.768 2.768 0 0 0-.376 1.538 2.717 2.717 0 0 0 .376 1.521 1.2 1.2 0 0 0 1.042.632zm6.955.513h-.6l1.711-5.126h.906l1.709 5.126h-.7l-1.334-4.391h-.188zm7.962-.615l1.47-4.511h1.059l1.486 4.511h.308v1.709h-.513v-1.077h-3.417v1.076h-.513v-1.708zm.6 0h2.734l-1.233-4.011h-.273zm9.002.136v.478h-.632v-5.125h.632v3.93a9.673 9.673 0 0 1 .632-.974l1.828-2.477v-.479h.632v5.126h-.632v-3.926a7.2 7.2 0 0 1-.632.974zm11.96.479h-.632v-2.478h-2.307v2.477h-.632v-5.125h.632v2.1h2.358v-2.1h.581zm5.348 0v-5.126h2.614v.564h-1.965v4.562z"/></svg>