<svg xmlns="http://www.w3.org/2000/svg" width="190.535" height="55.171" viewBox="0 0 190.535 55.171"><defs><style>.a{fill:#fff}</style></defs><path class="a" d="M14.747.542l5.438 19.212h.09L25.6.542h14.715v36.191H29.763V10.859h-.126L22.8 36.733h-7.04L8.679 10.859h-.108v25.874H0V.542zm55.907 0l11.362 36.191H70.6l-1.909-7.2h-9.957l-1.945 7.2h-9L58.947.542zm-4.033 21.229L63.74 11.183l-2.881 10.606zM108.826.542v22.651a32.735 32.735 0 0 1-.468 6.536 9.975 9.975 0 0 1-1.639 3.781 8.661 8.661 0 0 1-3.8 2.827 16.907 16.907 0 0 1-6.1.936h-2.632a11.245 11.245 0 0 1-2.179-.216l-2.593-.522v-8.534c.774.2 1.53.324 2.251.45a12.964 12.964 0 0 0 1.927.162 5.4 5.4 0 0 0 2.017-.342 2.989 2.989 0 0 0 1.368-1.134 4.7 4.7 0 0 0 .594-1.657 15.611 15.611 0 0 0 .2-2.629V.542zm24.668-.541a18.942 18.942 0 0 1 6.554 1.1 15.107 15.107 0 0 1 5.15 3.079 16.2 16.2 0 0 1 4.033 5.978 22.291 22.291 0 0 1 1.512 8.481 23.857 23.857 0 0 1-1.3 7.742 16.457 16.457 0 0 1-3.4 6.032 14.567 14.567 0 0 1-5.4 3.6 19.248 19.248 0 0 1-7.094 1.26 19.554 19.554 0 0 1-6.518-1.026 14.729 14.729 0 0 1-5.205-3.246 16.421 16.421 0 0 1-4.177-6.23 22.578 22.578 0 0 1-1.35-8.139 22.021 22.021 0 0 1 1.62-8.781 16.1 16.1 0 0 1 4.519-6.25A15.737 15.737 0 0 1 127.3.974a18.672 18.672 0 0 1 6.194-.973zm0 7.9a4.069 4.069 0 0 0-2.5.774 5.564 5.564 0 0 0-1.8 2.179 11.92 11.92 0 0 0-.882 3.025 26.848 26.848 0 0 0-.342 4.537 27.853 27.853 0 0 0 .342 4.591 12.46 12.46 0 0 0 .882 3.115 6.014 6.014 0 0 0 1.8 2.233 4.321 4.321 0 0 0 4.988 0 5.636 5.636 0 0 0 1.8-2.233 11.091 11.091 0 0 0 .864-3.1 27.349 27.349 0 0 0 .342-4.591 26.358 26.358 0 0 0-.342-4.537 10.623 10.623 0 0 0-.954-3.1 5.546 5.546 0 0 0-1.8-2.179 4.051 4.051 0 0 0-2.413-.72zM158.125.54h18.33a21.049 21.049 0 0 1 6.23.828 10.029 10.029 0 0 1 4.357 2.593 9.6 9.6 0 0 1 2.017 3.241 11.7 11.7 0 0 1 .738 4.213 10.965 10.965 0 0 1-1.693 6.23 8.877 8.877 0 0 1-4.555 3.6l6.986 15.575h-12.28l-5.294-13.522h-3.709v13.435h-11.127zm11.127 7.9v6.932h5.06a6.212 6.212 0 0 0 1.963-.27 3.6 3.6 0 0 0 1.278-.7 3.2 3.2 0 0 0 .792-1.062 3.367 3.367 0 0 0 .27-1.386 3.6 3.6 0 0 0-.252-1.368 2.9 2.9 0 0 0-.7-1.044 3.241 3.241 0 0 0-1.368-.792 6.968 6.968 0 0 0-2.071-.27zM4.267 54.017H3.6l-.54-1.566h-2l-.466 1.566H0l1.8-5.4h.72zM2.9 51.966l-.829-2.629-.828 2.557zm6.319 2.048v-5.4h2.107a1.584 1.584 0 0 1 1.188.4 1.242 1.242 0 0 1 .378.9 1.188 1.188 0 0 1-.954 1.206 1.512 1.512 0 0 1 .846.522 1.368 1.368 0 0 1 .27.846 1.422 1.422 0 0 1-.432 1.062 1.8 1.8 0 0 1-1.314.432zm.648-3.043h1.17a1.278 1.278 0 0 0 .972-.27.972.972 0 0 0 .234-.648.738.738 0 0 0-.252-.594 1.152 1.152 0 0 0-.774-.234H9.849zm0 2.467h1.44a1.206 1.206 0 0 0 .81-.252.864.864 0 0 0 .288-.666 1.17 1.17 0 0 0-.126-.54.918.918 0 0 0-.36-.378 1.458 1.458 0 0 0-.7-.126h-1.37zm9.939.579h-.669v-4.806h-1.51v-.594h3.745v.594h-1.566zm8.139.002a1.8 1.8 0 0 1-1.6-.792 3.277 3.277 0 0 1-.576-1.963 3.223 3.223 0 0 1 .594-2 2.017 2.017 0 0 1 3.187 0 3.115 3.115 0 0 1 .594 1.963 3.4 3.4 0 0 1-.576 1.981 1.8 1.8 0 0 1-1.623.811zm0-.54a1.224 1.224 0 0 0 1.1-.648 3.025 3.025 0 0 0 .4-1.639 2.755 2.755 0 0 0-.414-1.6 1.278 1.278 0 0 0-1.1-.576 1.224 1.224 0 0 0-1.08.63 2.917 2.917 0 0 0-.4 1.62 2.863 2.863 0 0 0 .4 1.6 1.242 1.242 0 0 0 1.116.666zm12.618.538h-.648v-4.734l-1.8 4.663h-.306l-1.8-4.663v4.734h-.556v-5.4h.99l1.62 4.267 1.549-4.267h.99zm7.44.002a1.8 1.8 0 0 1-1.6-.792 3.3 3.3 0 0 1-.576-1.963 3.187 3.187 0 0 1 .612-2 2 2 0 0 1 3.187 0 3.115 3.115 0 0 1 .594 1.963 3.4 3.4 0 0 1-.576 1.981 1.8 1.8 0 0 1-1.639.81zm0-.54a1.224 1.224 0 0 0 1.1-.648 3.025 3.025 0 0 0 .4-1.639 2.755 2.755 0 0 0-.414-1.6 1.26 1.26 0 0 0-1.1-.576 1.242 1.242 0 0 0-1.08.63 2.917 2.917 0 0 0-.4 1.62 2.845 2.845 0 0 0 .414 1.6 1.242 1.242 0 0 0 1.08.666zm7.454.538v-5.4h3.079v.594h-2.431v1.621h.952a4.159 4.159 0 0 1 1.134.126 1.116 1.116 0 0 1 .648.522 1.8 1.8 0 0 1 .252.972 1.476 1.476 0 0 1-.434 1.117 1.8 1.8 0 0 1-1.314.414zm.648-.594h1.224c.738 0 1.1-.324 1.1-.99a.936.936 0 0 0-.27-.738 1.4 1.4 0 0 0-.918-.234h-1.136zm8.913.094v.5h-.666v-5.4h.666v4.141a10.208 10.208 0 0 1 .666-1.026l1.928-2.615v-.5h.666v5.4h-.666v-4.14a7.49 7.49 0 0 1-.666 1.026zm8.805.5h-.63l1.8-5.4h.95l1.8 5.4h-.738l-1.4-4.627h-.2zm8.733 0v-5.4h.666v2.125h.864a3.3 3.3 0 0 1 1.242.162 1.242 1.242 0 0 1 .576.54 1.8 1.8 0 0 1 .216.918 1.567 1.567 0 0 1-.432 1.188 1.8 1.8 0 0 1-1.314.414zm.666-.594h1.152a1.152 1.152 0 0 0 .846-.27 1.044 1.044 0 0 0 .252-.756c0-.666-.36-1.008-1.1-1.008h-1.15zm11.793.594h-.666v-2.609h-2.517v2.609h-.67v-5.4h.67v2.215h2.521v-2.215h.666zm5.654 0v-5.4h.666v2.125h.864a3.313 3.313 0 0 1 1.242.162 1.26 1.26 0 0 1 .576.54 1.8 1.8 0 0 1 .216.918 1.567 1.567 0 0 1-.432 1.188 1.8 1.8 0 0 1-1.314.414zm.666-.594h1.152a1.152 1.152 0 0 0 .846-.27 1.062 1.062 0 0 0 .252-.756c0-.666-.36-1.008-1.1-1.008h-1.15zm3.6.594v-5.4h.666v5.4zm7.064-.503v.5h-.67v-5.4h.67v4.144a10.21 10.21 0 0 1 .666-1.026l1.927-2.611v-.5h.648v5.4h-.666v-4.144a7.524 7.524 0 0 1-.666 1.026zm.108-6.428h.45a.63.63 0 0 0 .7.522c.432 0 .666-.18.738-.522h.45a1.044 1.044 0 0 1-1.116 1.008 1.08 1.08 0 0 1-1.23-1.026zm24.465 1.531l-1.53 2.449 1.8 2.953h-.756l-1.4-2.341-1.445 2.339h-.63l1.8-2.773-1.566-2.627h.756l1.17 1.981 1.207-1.981zm6.843 5.402a1.8 1.8 0 0 1-1.6-.792 3.313 3.313 0 0 1-.576-1.963 3.223 3.223 0 0 1 .594-2 2.017 2.017 0 0 1 3.187 0 3.115 3.115 0 0 1 .594 1.963 3.385 3.385 0 0 1-.576 1.981 1.8 1.8 0 0 1-1.62.81zm0-.54a1.224 1.224 0 0 0 1.1-.648 3.025 3.025 0 0 0 .4-1.639 2.755 2.755 0 0 0-.414-1.6 1.278 1.278 0 0 0-1.1-.576 1.224 1.224 0 0 0-1.08.63 2.917 2.917 0 0 0-.4 1.62 2.863 2.863 0 0 0 .4 1.6 1.26 1.26 0 0 0 1.1.666zm7.328.538h-.63l1.8-5.4h.954l1.8 5.4h-.738l-1.4-4.627h-.2zm8.39-.647l1.548-4.753h1.116l1.566 4.753h.324v1.8h-.54v-1.133h-3.6v1.134h-.54v-1.8zm.63 0h2.881l-1.3-4.231h-.288zm9.493.147v.5h-.67v-5.4h.67v4.141a10.193 10.193 0 0 1 .666-1.026l1.923-2.615v-.5h.666v5.4h-.666v-4.14a7.582 7.582 0 0 1-.666 1.026zm12.6.5h-.666v-2.609h-2.431v2.609h-.666v-5.4h.666v2.215h2.485v-2.215h.612zm5.636 0v-5.4h2.755v.594h-2.071v4.806z"/></svg>