<svg xmlns="http://www.w3.org/2000/svg" width="83.207" height="66.57" viewBox="0 0 83.207 66.57"><defs><style>.a{fill:#ffe026}</style></defs><path class="a" d="M23.576 26.348h5.547v2.774h-5.547zM9.708 12.483h5.547v2.774H9.708zm-2.774 8.321h8.321v2.774H6.934zm0 8.32h8.321v2.773H6.934z"/><path d="M83.207 16.645v-5.547a1.387 1.387 0 0 0-1.387-1.387H51.311V1.387A1.387 1.387 0 0 0 49.924 0H4.161a1.387 1.387 0 0 0-1.387 1.387v40.22a1.387 1.387 0 0 0-1.387 1.387v4.549A2.773 2.773 0 0 0 0 49.928v4.16a2.782 2.782 0 0 0 2.774 2.774h4.16a9.708 9.708 0 1 0 19.415 0h30.509a9.707 9.707 0 1 0 19.415 0h4.16a2.782 2.782 0 0 0 2.774-2.774v-4.16a2.774 2.774 0 0 0-1.387-2.385V36.06a1.387 1.387 0 0 0-1.387-1.387h-1.484l-1.193-16.641h4.063a1.387 1.387 0 0 0 1.388-1.387zm-31.9 1.387h5.547v29.122h-5.547zM5.548 2.777h42.99v38.83H5.548zm42.99 41.6v2.774h-1.914l1.387-2.774zm-3.633 0l-1.387 2.774h-2.441l1.387-2.774zm-5.547 0l-1.387 2.774H35.53l1.387-2.774zm-5.547 0l-1.387 2.774h-2.44l1.387-2.774zm-5.547 0l-1.387 2.774h-2.441l1.387-2.774zm-5.547 0l-1.387 2.774h-2.446l1.387-2.774zm-5.547 0l-1.387 2.774h-2.441l1.387-2.774zm-5.547 0l-1.387 2.774H7.794l1.39-2.774zm-7.461 0h1.914l-1.392 2.777h-.527zm-1.388 9.71v-4.16H9.86a9.8 9.8 0 0 0-2.524 4.16zm13.868 9.707a6.934 6.934 0 1 1 6.934-6.934 6.934 6.934 0 0 1-6.934 6.934zm9.305-9.707a9.8 9.8 0 0 0-2.524-4.16h36.361a9.8 9.8 0 0 0-2.524 4.16zm40.619 9.707A6.934 6.934 0 1 1 73.5 56.86a6.934 6.934 0 0 1-6.934 6.934zm13.868-9.707h-4.562a9.8 9.8 0 0 0-2.524-4.16h7.086zm-1.387-16.641v9.707H59.632v-9.707zm-19.415-2.773V18.032h15.352l1.193 16.641zm20.8-19.415H51.311v-2.771h29.122z"/><path class="a" d="M44.378 8.325H19.416a1.387 1.387 0 0 0-1.387 1.387v24.962a1.387 1.387 0 0 0 1.387 1.387h24.962a1.387 1.387 0 0 0 1.387-1.387V9.711a1.387 1.387 0 0 0-1.387-1.386zM30.51 11.099h2.774v4.465l-2.774.693zm-9.707 0h6.934v1.387h-6.934zm22.188 22.188H20.803V15.258h6.934v2.774a1.383 1.383 0 0 0 1.72 1.345l5.547-1.387a1.387 1.387 0 0 0 1.054-1.345v-1.387h6.934zm0-20.8h-6.937v-1.389h6.934z"/><path d="M66.564 52.698a4.16 4.16 0 1 0 4.16 4.16 4.16 4.16 0 0 0-4.16-4.16zm0 5.547a1.382 1.382 0 1 1 .981-.4 1.387 1.387 0 0 1-.981.4zM16.64 52.698a4.16 4.16 0 1 0 4.16 4.16 4.16 4.16 0 0 0-4.16-4.16zm0 5.547a1.383 1.383 0 1 1 .982-.4 1.387 1.387 0 0 1-.982.4z"/></svg>