<svg xmlns="http://www.w3.org/2000/svg" viewBox="0 0 12.7 15.22"><path class="a" d="M6.26 7.33a3.55 3.55 0 0 0 2.6-1.07 3.55 3.55 0 0 0 1.07-2.6 3.55 3.55 0 0 0-1.07-2.59 3.66 3.66 0 0 0-5.18 0A3.55 3.55 0 0 0 2.6 3.66a3.55 3.55 0 0 0 1.07 2.6 3.55 3.55 0 0 0 2.59 1.07z"/><path class="a" d="M12.68 11.7a9.05 9.05 0 0 0-.12-1 7.58 7.58 0 0 0-.24-1 4.78 4.78 0 0 0-.4-.9 3.4 3.4 0 0 0-.6-.78 2.64 2.64 0 0 0-.86-.54 3 3 0 0 0-1.1-.2 1.12 1.12 0 0 0-.6.25L8.13 8a3.56 3.56 0 0 1-.8.35 3.12 3.12 0 0 1-2 0A3.55 3.55 0 0 1 4.57 8l-.62-.4a1.11 1.11 0 0 0-.6-.25 3 3 0 0 0-1.1.2 2.64 2.64 0 0 0-.86.54 3.4 3.4 0 0 0-.6.78 4.79 4.79 0 0 0-.4.9 7.59 7.59 0 0 0-.24 1 9 9 0 0 0-.12 1c-.02.23-.02.53-.02.83a2.53 2.53 0 0 0 .75 1.91 2.7 2.7 0 0 0 1.93.71h7.32a2.7 2.7 0 0 0 1.93-.71 2.53 2.53 0 0 0 .75-1.91v-.9z"/></svg>