<svg xmlns="http://www.w3.org/2000/svg" width="262.865" height="33.215" viewBox="0 0 262.865 33.215"><defs><style>.a{fill:#0062a1}</style></defs><path class="a" d="M163.872 33.215V0h2.422v33.215zm-14.8-3.266h-10.873l-4.67-9.285h-3.074v9.285h-9.175V5.634h16.029c3.67 0 6.542.661 8.588 1.973a5.955 5.955 0 0 1 3.055 5.2 6.322 6.322 0 0 1-1.119 3.67c-.752 1.074-2.275 2.019-4.588 2.844zm-18.617-14.516h4.184a6.368 6.368 0 0 0 2.973-.587 1.835 1.835 0 0 0 1.1-1.7q0-2.331-3.762-2.331h-4.5zM21.792 5.634L17.36 18.553 12.946 5.634H0v24.315h9.1V17.534l4.4 12.414h7.762l4.377-12.488v12.489h9.1V5.634zm37.095 24.315h9L57.869 5.634H47.501l-10.02 24.315h8.35l1.936-5.01h9.056zm-9.1-10.2l2.376-6.148 2.532 6.148zM76.22 5.634v15.3a3.367 3.367 0 0 1-.918 2.679 5.78 5.78 0 0 1-3.331.918 19.268 19.268 0 0 1-3.835-.578l2.487 6a21.626 21.626 0 0 0 4.065.376 16.249 16.249 0 0 0 6.533-1.074 6.065 6.065 0 0 0 3.248-2.918 13.561 13.561 0 0 0 .826-5.368V5.634zm38.087 2.982q-4.2-3.349-10.864-3.349-7.212 0-11.277 3.551a11.451 11.451 0 0 0-4.065 9.01 11.056 11.056 0 0 0 4.248 9.093q4.248 3.4 11.01 3.4t10.928-3.487a11.451 11.451 0 0 0 4.239-9.276 10.873 10.873 0 0 0-4.221-8.946zm-6.615 14.531c-.918 1.11-2.367 1.652-4.4 1.652q-5.735 0-5.725-6.781 0-7.239 5.955-7.23 5.505 0 5.505 6.34c.009 2.89-.44 4.927-1.33 6.019zm72.549 3.994h-3.285l4.487-15.938h4.982l4.588 15.938h-4.037l-3.368-12.628zm15.782-1.615v1.578h-3.67V11.212h3.67v6.79q0 1.743-.11 3.533a19.956 19.956 0 0 1 1.78-3.285l3.744-5.377v-1.661h3.67V27.14h-3.67v-7.221q0-1.835.1-2.973a17.662 17.662 0 0 1-1.835 3.276zm10.974-3.23l3.285-.44a2.753 2.753 0 0 0 3.019 2.5q2.753 0 2.753-2.129t-2.266-2.019h-1.275v-2.472h1.156a2.083 2.083 0 0 0 1.514-.523 1.835 1.835 0 0 0 .541-1.385 1.532 1.532 0 0 0-.679-1.34 2.991 2.991 0 0 0-1.753-.477 3.358 3.358 0 0 0-1.936.477 2.477 2.477 0 0 0-.918 1.7l-3.055-.514q.679-4.707 6.01-4.707a7.45 7.45 0 0 1 4.468 1.174 3.67 3.67 0 0 1 1.6 3.083q0 2.487-2.753 3.413 3.2.918 3.2 3.67a4.5 4.5 0 0 1-1.725 3.67 7.029 7.029 0 0 1-4.588 1.422 7.285 7.285 0 0 1-4.89-1.422 4.955 4.955 0 0 1-1.708-3.681zm18.983 3.23v1.578h-3.67V11.212h3.67v6.79q0 1.743-.1 3.533a19.958 19.958 0 0 1 1.78-3.285l3.725-5.386v-1.652h3.67V27.14h-3.67v-7.221q0-1.835.11-2.973a17.717 17.717 0 0 1-1.835 3.276zm24.587-14.314V27.14h-3.67v-6.57h-4.97v6.57h-3.67V11.212h3.67v6.212h4.973v-6.212zm3.197 15.928V11.212h9.1v3.156h-5.441V27.14z"/></svg>