<svg xmlns="http://www.w3.org/2000/svg" width="190.535" height="55.171" viewBox="0 0 190.535 55.171"><defs><style>.a{fill:#fff;}</style></defs><path class="a" d="M14.747.3l5.438,19.212h.09L25.6.3H40.315V36.491H29.763V10.617h-.126L22.8,36.491h-7.04L8.679,10.617H8.571V36.491H0V.3Z" transform="translate(0 0.242)"/><path class="a" d="M49.407.3,60.769,36.491H49.353l-1.909-7.2H37.487l-1.945,7.2h-9L37.7.3ZM45.374,21.529h0L42.493,10.941,39.612,21.547Z" transform="translate(21.247 0.242)"/><path class="a" d="M69.07.3V22.951a32.735,32.735,0,0,1-.468,6.536,9.975,9.975,0,0,1-1.639,3.781,8.661,8.661,0,0,1-3.8,2.827,16.907,16.907,0,0,1-6.1.936H54.431a11.245,11.245,0,0,1-2.179-.216l-2.593-.522V27.759c.774.2,1.53.324,2.251.45a12.964,12.964,0,0,0,1.927.162,5.4,5.4,0,0,0,2.017-.342,2.989,2.989,0,0,0,1.368-1.134,4.7,4.7,0,0,0,.594-1.657,15.611,15.611,0,0,0,.2-2.629V.3Z" transform="translate(39.756 0.242)"/><path class="a" d="M81.788,0a18.942,18.942,0,0,1,6.554,1.1,15.107,15.107,0,0,1,5.15,3.079,16.2,16.2,0,0,1,4.033,5.978,22.291,22.291,0,0,1,1.512,8.481,23.857,23.857,0,0,1-1.3,7.742,16.457,16.457,0,0,1-3.4,6.032,14.567,14.567,0,0,1-5.4,3.6,19.248,19.248,0,0,1-7.094,1.26,19.554,19.554,0,0,1-6.518-1.026A14.729,14.729,0,0,1,70.12,33a16.421,16.421,0,0,1-4.177-6.23,22.578,22.578,0,0,1-1.35-8.139A22.021,22.021,0,0,1,66.213,9.85,16.1,16.1,0,0,1,70.732,3.6,15.737,15.737,0,0,1,75.594.973,18.672,18.672,0,0,1,81.788,0Zm0,7.9h0a4.069,4.069,0,0,0-2.5.774,5.564,5.564,0,0,0-1.8,2.179,11.92,11.92,0,0,0-.882,3.025,26.848,26.848,0,0,0-.342,4.537,27.853,27.853,0,0,0,.342,4.591,12.46,12.46,0,0,0,.882,3.115,6.014,6.014,0,0,0,1.8,2.233,4.321,4.321,0,0,0,4.988,0,5.636,5.636,0,0,0,1.8-2.233,11.091,11.091,0,0,0,.864-3.1,27.349,27.349,0,0,0,.342-4.591,26.358,26.358,0,0,0-.342-4.537,10.623,10.623,0,0,0-.954-3.1,5.546,5.546,0,0,0-1.8-2.179,4.051,4.051,0,0,0-2.413-.72Z" transform="translate(51.706 0.001)"/><path class="a" d="M87.82.3h18.33a21.049,21.049,0,0,1,6.23.828,10.029,10.029,0,0,1,4.357,2.593,9.6,9.6,0,0,1,2.017,3.241,11.7,11.7,0,0,1,.738,4.213,10.965,10.965,0,0,1-1.693,6.23,8.877,8.877,0,0,1-4.555,3.6l6.986,15.575H107.95l-5.294-13.522H98.947V36.493H87.82Zm11.127,7.9h0v6.932h5.06a6.212,6.212,0,0,0,1.963-.27,3.6,3.6,0,0,0,1.278-.7,3.2,3.2,0,0,0,.792-1.062,3.367,3.367,0,0,0,.27-1.386,3.6,3.6,0,0,0-.252-1.368,2.9,2.9,0,0,0-.7-1.044,3.241,3.241,0,0,0-1.368-.792,6.968,6.968,0,0,0-2.071-.27Z" transform="translate(70.305 0.24)"/><path class="a" d="M4.267,32.4H3.6l-.54-1.566h-2L.594,32.4H0L1.8,27h.72ZM2.9,30.349,2.071,27.72l-.828,2.557Z" transform="translate(0 21.617)"/><path class="a" d="M5.12,32.4V27H7.227a1.584,1.584,0,0,1,1.188.4,1.242,1.242,0,0,1,.378.9,1.188,1.188,0,0,1-.954,1.206,1.512,1.512,0,0,1,.846.522,1.368,1.368,0,0,1,.27.846,1.422,1.422,0,0,1-.432,1.062,1.8,1.8,0,0,1-1.314.432Zm.648-3.043h1.17a1.278,1.278,0,0,0,.972-.27.972.972,0,0,0,.234-.648.738.738,0,0,0-.252-.594,1.152,1.152,0,0,0-.774-.234H5.75Zm0,2.467h1.44a1.206,1.206,0,0,0,.81-.252.864.864,0,0,0,.288-.666,1.17,1.17,0,0,0-.126-.54.918.918,0,0,0-.36-.378,1.458,1.458,0,0,0-.7-.126H5.75Z" transform="translate(4.099 21.614)"/><path class="a" d="M11.969,32.4H11.3V27.594H9.79V27h3.745v.594H11.969Z" transform="translate(7.837 21.617)"/><path class="a" d="M16.49,32.461a1.8,1.8,0,0,1-1.6-.792,3.277,3.277,0,0,1-.576-1.963,3.223,3.223,0,0,1,.594-2,2.017,2.017,0,0,1,3.187,0,3.115,3.115,0,0,1,.594,1.963,3.4,3.4,0,0,1-.576,1.981A1.8,1.8,0,0,1,16.49,32.461Zm0-.54a1.224,1.224,0,0,0,1.1-.648,3.025,3.025,0,0,0,.4-1.639,2.755,2.755,0,0,0-.414-1.6,1.278,1.278,0,0,0-1.1-.576,1.224,1.224,0,0,0-1.08.63,2.917,2.917,0,0,0-.4,1.62,2.863,2.863,0,0,0,.4,1.6,1.242,1.242,0,0,0,1.116.666Z" transform="translate(11.455 21.558)"/><path class="a" d="M24.8,32.4h-.648V27.666l-1.8,4.663h-.306l-1.8-4.663V32.4H19.69V27h.99L22.3,31.267,23.849,27h.99Z" transform="translate(15.763 21.617)"/><path class="a" d="M27.63,32.466a1.8,1.8,0,0,1-1.6-.792,3.3,3.3,0,0,1-.576-1.963,3.187,3.187,0,0,1,.612-2,2,2,0,0,1,3.187,0,3.115,3.115,0,0,1,.594,1.963,3.4,3.4,0,0,1-.576,1.981,1.8,1.8,0,0,1-1.639.81Zm0-.54a1.224,1.224,0,0,0,1.1-.648,3.025,3.025,0,0,0,.4-1.639,2.755,2.755,0,0,0-.414-1.6,1.26,1.26,0,0,0-1.1-.576,1.242,1.242,0,0,0-1.08.63,2.917,2.917,0,0,0-.4,1.62,2.845,2.845,0,0,0,.414,1.6,1.242,1.242,0,0,0,1.08.666Z" transform="translate(20.373 21.553)"/><path class="a" d="M30.8,32.4V27h3.079v.594H31.448v1.621H32.4a4.159,4.159,0,0,1,1.134.126,1.116,1.116,0,0,1,.648.522,1.8,1.8,0,0,1,.252.972A1.476,1.476,0,0,1,34,31.952a1.8,1.8,0,0,1-1.314.414Zm.648-.594h1.224c.738,0,1.1-.324,1.1-.99a.936.936,0,0,0-.27-.738,1.4,1.4,0,0,0-.918-.234H31.448Z" transform="translate(24.657 21.617)"/><path class="a" d="M36.406,31.9v.5H35.74V27h.666v4.141a10.208,10.208,0,0,1,.666-1.026L39,27.5V27h.666v5.4H39V28.26a7.49,7.49,0,0,1-.666,1.026Z" transform="translate(28.612 21.617)"/><path class="a" d="M41.28,32.4h-.63l1.8-5.4H43.4l1.8,5.4h-.738l-1.4-4.627h-.2Z" transform="translate(32.543 21.617)"/><path class="a" d="M45.85,32.4V27h.666v2.125h.864a3.3,3.3,0,0,1,1.242.162,1.242,1.242,0,0,1,.576.54,1.8,1.8,0,0,1,.216.918,1.567,1.567,0,0,1-.432,1.188,1.8,1.8,0,0,1-1.314.414Zm.666-.594h1.152a1.152,1.152,0,0,0,.846-.27,1.044,1.044,0,0,0,.252-.756c0-.666-.36-1.008-1.1-1.008H46.516Z" transform="translate(36.706 21.617)"/><path class="a" d="M54.483,32.4h-.666V29.791H51.3V32.4H50.63V27H51.3v2.215h2.521V27h.666Z" transform="translate(40.532 21.617)"/><path class="a" d="M55.91,32.4V27h.666v2.125h.864a3.313,3.313,0,0,1,1.242.162,1.26,1.26,0,0,1,.576.54,1.8,1.8,0,0,1,.216.918,1.567,1.567,0,0,1-.432,1.188,1.8,1.8,0,0,1-1.314.414Zm.666-.594h1.152a1.152,1.152,0,0,0,.846-.27,1.062,1.062,0,0,0,.252-.756c0-.666-.36-1.008-1.1-1.008H56.576Zm3.6.594V27h.666v5.4Z" transform="translate(44.759 21.617)"/><path class="a" d="M62.5,32.586v.5H61.83v-5.4H62.5V31.83a10.21,10.21,0,0,1,.666-1.026l1.927-2.611v-.5h.648v5.4h-.666V28.949a7.524,7.524,0,0,1-.666,1.026Zm.108-6.428h.45a.63.63,0,0,0,.7.522c.432,0,.666-.18.738-.522h.45a1.044,1.044,0,0,1-1.116,1.008A1.08,1.08,0,0,1,62.6,26.14Z" transform="translate(49.499 20.928)"/><path class="a" d="M77.611,27l-1.53,2.449,1.8,2.953h-.756l-1.4-2.341L74.28,32.4h-.63l1.8-2.773L73.884,27h.756l1.17,1.981L77.017,27Z" transform="translate(58.961 21.617)"/><path class="a" d="M80.62,32.461a1.8,1.8,0,0,1-1.6-.792,3.313,3.313,0,0,1-.576-1.963,3.223,3.223,0,0,1,.594-2,2.017,2.017,0,0,1,3.187,0,3.115,3.115,0,0,1,.594,1.963,3.385,3.385,0,0,1-.576,1.981,1.8,1.8,0,0,1-1.62.81Zm0-.54a1.224,1.224,0,0,0,1.1-.648,3.025,3.025,0,0,0,.4-1.639,2.755,2.755,0,0,0-.414-1.6,1.278,1.278,0,0,0-1.1-.576,1.224,1.224,0,0,0-1.08.63,2.917,2.917,0,0,0-.4,1.62,2.863,2.863,0,0,0,.4,1.6,1.26,1.26,0,0,0,1.1.666Z" transform="translate(62.795 21.558)"/><path class="a" d="M84,32.4h-.63l1.8-5.4h.954l1.8,5.4h-.738l-1.4-4.627h-.2Z" transform="translate(66.743 21.617)"/><path class="a" d="M88.436,31.753,89.984,27H91.1l1.566,4.753h.324v1.8h-.54V32.42h-3.6v1.134h-.54v-1.8Zm.63,0h2.881l-1.3-4.231h-.288Z" transform="translate(70.697 21.617)"/><path class="a" d="M94.3,31.9v.5H93.63V27H94.3v4.141a10.193,10.193,0,0,1,.666-1.026L96.889,27.5V27h.666v5.4h-.666V28.26a7.582,7.582,0,0,1-.666,1.026Z" transform="translate(74.956 21.617)"/><path class="a" d="M102.673,32.4h-.666V29.791H99.576V32.4H98.91V27h.666v2.215h2.485V27h.612Z" transform="translate(79.183 21.617)"/><path class="a" d="M104.13,32.4V27h2.755v.594h-2.071V32.4Z" transform="translate(83.362 21.617)"/></svg>