<svg xmlns="http://www.w3.org/2000/svg" width="262.865" height="33.215" viewBox="0 0 262.865 33.215"><defs><style>.a{fill:#0062a1;}</style></defs><path class="a" d="M199.42,44.395V11.18h2.422V44.395Z" transform="translate(-35.548 -11.18)"/><path class="a" d="M180.792,41.635H169.919l-4.67-9.285h-3.074v9.285H153V17.32h16.029c3.67,0,6.542.661,8.588,1.973a5.955,5.955,0,0,1,3.055,5.2,6.322,6.322,0,0,1-1.119,3.67c-.752,1.074-2.275,2.019-4.588,2.844ZM162.175,27.119h4.184a6.368,6.368,0,0,0,2.973-.587,1.835,1.835,0,0,0,1.1-1.7q0-2.331-3.762-2.331h-4.5Z" transform="translate(-31.72 -11.686)"/><path class="a" d="M42.612,17.32,38.18,30.239,33.766,17.32H20.82V41.635h9.1V29.22l4.4,12.414h7.762l4.377-12.488V41.635h9.1V17.32Z" transform="translate(-20.82 -11.686)"/><path class="a" d="M83.076,41.635h9L82.058,17.32H71.69L61.67,41.635h8.35l1.936-5.01h9.056Zm-9.1-10.2,2.376-6.148,2.532,6.148Z" transform="translate(-24.189 -11.686)"/><path class="a" d="M103.164,17.32v15.3a3.367,3.367,0,0,1-.918,2.679,5.78,5.78,0,0,1-3.331.918,19.268,19.268,0,0,1-3.835-.578h0l2.487,6a21.626,21.626,0,0,0,4.065.376,16.249,16.249,0,0,0,6.533-1.074,6.065,6.065,0,0,0,3.248-2.918,13.561,13.561,0,0,0,.826-5.368V17.32Z" transform="translate(-26.944 -11.686)"/><path class="a" d="M143.044,20.269q-4.2-3.349-10.864-3.349-7.212,0-11.277,3.551a11.451,11.451,0,0,0-4.065,9.01,11.056,11.056,0,0,0,4.248,9.093q4.248,3.4,11.01,3.4t10.928-3.487a11.451,11.451,0,0,0,4.239-9.276,10.873,10.873,0,0,0-4.221-8.946ZM136.429,34.8c-.918,1.11-2.367,1.652-4.4,1.652q-5.735,0-5.725-6.781,0-7.239,5.955-7.23,5.505,0,5.505,6.34c.009,2.89-.44,4.927-1.33,6.019Z" transform="translate(-28.737 -11.653)"/><path class="a" d="M216.965,39.328H213.68l4.487-15.938h4.982l4.588,15.938H223.7L220.332,26.7Z" transform="translate(-36.724 -12.187)"/><path class="a" d="M234.13,37.714v1.578h-3.67V23.4h3.67v6.79q0,1.743-.11,3.533a19.956,19.956,0,0,1,1.78-3.285l3.744-5.377V23.4h3.67V39.328h-3.67V32.107q0-1.835.1-2.973a17.662,17.662,0,0,1-1.835,3.276Z" transform="translate(-38.107 -12.188)"/><path class="a" d="M246.42,34.46l3.285-.44a2.753,2.753,0,0,0,3.019,2.5q2.753,0,2.753-2.129t-2.266-2.019h-1.275V29.9h1.156a2.083,2.083,0,0,0,1.514-.523,1.835,1.835,0,0,0,.541-1.385,1.532,1.532,0,0,0-.679-1.34,2.991,2.991,0,0,0-1.753-.477,3.358,3.358,0,0,0-1.936.477,2.477,2.477,0,0,0-.918,1.7l-3.055-.514q.679-4.707,6.01-4.707a7.45,7.45,0,0,1,4.468,1.174,3.67,3.67,0,0,1,1.6,3.083q0,2.487-2.753,3.413,3.2.918,3.2,3.67a4.5,4.5,0,0,1-1.725,3.67,7.029,7.029,0,0,1-4.588,1.422,7.285,7.285,0,0,1-4.89-1.422A4.955,4.955,0,0,1,246.42,34.46Z" transform="translate(-39.423 -12.164)"/><path class="a" d="M266.78,37.714v1.578h-3.67V23.4h3.67v6.79q0,1.743-.1,3.533a19.958,19.958,0,0,1,1.78-3.285l3.725-5.386V23.4h3.67V39.328h-3.67V32.107q0-1.835.11-2.973a17.717,17.717,0,0,1-1.835,3.276Z" transform="translate(-40.8 -12.188)"/><path class="a" d="M292.8,23.4V39.328h-3.67v-6.57H284.16v6.57h-3.67V23.4h3.67v6.212h4.973V23.4Z" transform="translate(-42.233 -12.188)"/><path class="a" d="M297.39,39.328V23.4h9.1v3.156h-5.441V39.328Z" transform="translate(-43.626 -12.188)"/></svg>