<svg xmlns="http://www.w3.org/2000/svg" width="145.119" height="60.804" viewBox="0 0 145.119 60.804"><defs><style>.a{fill:#fff;}.b{fill:#ee2e24;}</style></defs><path class="a" d="M0,5.79H14.384V9.31H4.1V30.058H0Z" transform="translate(0 -5.519)"/><path class="a" d="M349.349,160.237a6.357,6.357,0,0,1-3.435-.9,6.815,6.815,0,0,1-2.318-2.42v8.968H339.67V142.334h3.587l.271,3.113a6.918,6.918,0,0,1,2.336-2.523,6.4,6.4,0,0,1,3.552-.926,7.94,7.94,0,0,1,2.961.556,6.665,6.665,0,0,1,2.454,1.693,8.372,8.372,0,0,1,1.676,2.843,11.625,11.625,0,0,1,.626,4.01,11.76,11.76,0,0,1-.626,4.044,8.221,8.221,0,0,1-1.693,2.843,6.781,6.781,0,0,1-2.487,1.693A8.085,8.085,0,0,1,349.349,160.237Zm-.948-3.249a4.368,4.368,0,0,0,3.4-1.443,8.152,8.152,0,0,0,0-8.841,4.3,4.3,0,0,0-3.367-1.459,5.093,5.093,0,0,0-1.927.356,4.086,4.086,0,0,0-1.542,1.1,5.341,5.341,0,0,0-1.032,1.85,9.086,9.086,0,0,0,0,5.159,5.358,5.358,0,0,0,1.015,1.833,3.982,3.982,0,0,0,1.542,1.086,5.119,5.119,0,0,0,1.91.357Z" transform="translate(-323.797 -135.362)"/><path class="a" d="M748.1,169.37a8.344,8.344,0,0,1-1.522,2.048,5.764,5.764,0,0,1-2,1.252,7.585,7.585,0,0,1-2.657.423,6.832,6.832,0,0,1-2.843-.538v-3.5a3.39,3.39,0,0,0,1.184.582,5.612,5.612,0,0,0,1.557.207,3.337,3.337,0,0,0,1.9-.5,4.728,4.728,0,0,0,1.355-1.5L738,149.2h4.231l4.907,13.639L752.01,149.2h3.654l-6.327,17.361A20.753,20.753,0,0,1,748.1,169.37Z" transform="translate(-703.513 -142.228)"/><path class="a" d="M1174.375,154.857a4.757,4.757,0,0,1-.592,2.437,4.916,4.916,0,0,1-1.625,1.675,7.406,7.406,0,0,1-2.42.965,13.712,13.712,0,0,1-2.944.3,12.2,12.2,0,0,1-3.655-.457,10.55,10.55,0,0,1-2.2-.931v-3.215a8.366,8.366,0,0,0,2.454,1.032,12.5,12.5,0,0,0,3.2.39,6.251,6.251,0,0,0,2.843-.542,1.893,1.893,0,0,0,1.049-1.828,1.834,1.834,0,0,0-.948-1.743,6.313,6.313,0,0,0-2.944-.524h-2.471v-2.979h2.538a4.634,4.634,0,0,0,2.454-.542,1.787,1.787,0,0,0,.864-1.624,1.658,1.658,0,0,0-.965-1.642,5.849,5.849,0,0,0-2.487-.458,10.536,10.536,0,0,0-2.979.389,9.207,9.207,0,0,0-2.337,1.033v-3.214a9.028,9.028,0,0,1,2.3-.965A12.948,12.948,0,0,1,1167.1,142a8.593,8.593,0,0,1,4.941,1.184,3.95,3.95,0,0,1,1.693,3.452,3.677,3.677,0,0,1-.948,2.691,5.632,5.632,0,0,1-2.778,1.4Q1174.375,151.406,1174.375,154.857Z" transform="translate(-1106.689 -135.364)"/><path class="a" d="M1515.827,160.258a9.6,9.6,0,0,1-3.452-.607,7.79,7.79,0,0,1-2.757-1.776,8.188,8.188,0,0,1-1.828-2.86,11.807,11.807,0,0,1,0-7.783,8.191,8.191,0,0,1,1.828-2.86,7.6,7.6,0,0,1,2.757-1.76,10.359,10.359,0,0,1,6.9,0,7.775,7.775,0,0,1,2.775,1.76,8.283,8.283,0,0,1,1.861,2.86,11.524,11.524,0,0,1,0,7.783,8.288,8.288,0,0,1-1.861,2.86,7.968,7.968,0,0,1-2.775,1.776A9.6,9.6,0,0,1,1515.827,160.258Zm0-3.249a4.42,4.42,0,0,0,3.367-1.426,8.036,8.036,0,0,0,0-8.876,4.612,4.612,0,0,0-6.7,0,8.036,8.036,0,0,0,0,8.876,4.38,4.38,0,0,0,3.334,1.425Z" transform="translate(-1436.701 -135.383)"/><path class="a" d="M1951.06,149.2h7.175q6.667,0,6.667,4.4a3.529,3.529,0,0,1-.9,2.555,5.625,5.625,0,0,1-2.623,1.4,5.611,5.611,0,0,1,3.182,1.32,3.818,3.818,0,0,1,1.049,2.876,4.255,4.255,0,0,1-2.048,3.791,7.365,7.365,0,0,1-2.352.914,14.059,14.059,0,0,1-3.046.3h-7.107Zm3.892,3.046v4.129h2.876a4.487,4.487,0,0,0,2.3-.52,1.674,1.674,0,0,0,.881-1.528,1.735,1.735,0,0,0-.762-1.628,4.389,4.389,0,0,0-2.217-.453Zm0,6.9v4.569h3.012a6.2,6.2,0,0,0,2.623-.47,1.753,1.753,0,0,0,1-1.747,1.945,1.945,0,0,0-.9-1.814,5.682,5.682,0,0,0-2.826-.537Z" transform="translate(-1859.886 -142.228)"/><path class="a" d="M2330.6,160.239a9.6,9.6,0,0,1-3.452-.607,7.788,7.788,0,0,1-2.757-1.776,8.184,8.184,0,0,1-1.828-2.86,11.805,11.805,0,0,1,0-7.783,8.189,8.189,0,0,1,1.828-2.86,7.6,7.6,0,0,1,2.757-1.76,10.352,10.352,0,0,1,6.9,0,7.774,7.774,0,0,1,2.775,1.76,8.281,8.281,0,0,1,1.861,2.86,11.52,11.52,0,0,1,0,7.783,8.286,8.286,0,0,1-1.861,2.86,7.968,7.968,0,0,1-2.775,1.776A9.594,9.594,0,0,1,2330.6,160.239Zm0-3.249a4.419,4.419,0,0,0,3.367-1.426,8.036,8.036,0,0,0,0-8.876,4.612,4.612,0,0,0-6.7,0,8.028,8.028,0,0,0,0,8.876,4.384,4.384,0,0,0,3.336,1.426Z" transform="translate(-2213.396 -135.364)"/><path class="a" d="M2769.7,19.223l8.122-12.251h3.858V24.536h-3.892V12.353l-8.054,12.184h-3.925V6.972h3.892Zm4.027-14.349a7.217,7.217,0,0,1-2.454-.374,4.886,4.886,0,0,1-1.726-1.032,4.133,4.133,0,0,1-1.032-1.557,5.359,5.359,0,0,1-.338-1.91h3.452a2.249,2.249,0,0,0,.561,1.709,2.172,2.172,0,0,0,1.542.525,2.1,2.1,0,0,0,1.523-.525A2.288,2.288,0,0,0,2775.793,0h3.484a5.376,5.376,0,0,1-.338,1.912,4.147,4.147,0,0,1-1.032,1.557,4.844,4.844,0,0,1-1.744,1.032,7.26,7.26,0,0,1-2.435.372Z" transform="translate(-2636.563)"/><path class="b" d="M1058.436,887.924l-2.97,6.668H1053.3l3.262-7.13c-1.534-.779-2.555-2.191-2.557-4.8,0-3.651,2.312-5.476,5.062-5.477h2.8v17.4h-1.873v-6.67Zm1.557-9.151h-1c-1.509,0-2.969,1-2.969,3.9,0,2.8,1.339,3.7,2.969,3.7h1Z" transform="translate(-1004.079 -836.199)"/><path class="a" d="M1294.964,983.535V995.8h-1.875v-5.5h-2.82v5.5h-1.9V983.536h1.9v5.208h2.823v-5.21Zm9.762,14.673h-1.7V995.8h-5.258v2.41h-1.7v-3.967h.754c1.121-2.6,1.241-6.4,1.241-9.663v-1.047h5.7v10.708h.973Zm-2.851-13.143h-2.118v.218c0,2.58-.121,6.352-1.144,8.956h3.262Zm8.081,10.9c-2.531,0-4.089-2.019-4.089-5.795,0-3.944,1.095-6.815,3.7-6.815,2.045,0,3.383,1.533,3.383,5.7V990.1h-5.109c0,2.776.779,4.236,2.29,4.235a4.249,4.249,0,0,0,2.409-.827l.438,1.459a4.815,4.815,0,0,1-3.02,1Zm-2.093-7.424H1311c0-2.093-.341-3.624-1.437-3.625-1.165,0-1.58,1.437-1.7,3.627Zm8.931,1.144V995.8h-1.9V983.535h1.9v5.67l2.944-5.671h1.923l-3.042,5.767,3.48,6.5h-2.069Zm5.549-.024c0-3.844,1.485-6.3,4.358-6.3a3.847,3.847,0,0,1,2.262.634l-.268,1.8a3.244,3.244,0,0,0-2.019-.851c-1.364,0-2.337,1.532-2.337,4.624,0,3.065.73,4.819,2.263,4.817a3.1,3.1,0,0,0,2.069-.754l.439,1.412a3.706,3.706,0,0,1-2.556.924c-2.629,0-4.21-2.114-4.211-6.3Z" transform="translate(-1228.164 -937.407)"/><path class="a" d="M2272.329,878.149v16.4h-1.219v-16.4h-3.431v-1h8.1v1Z" transform="translate(-2161.71 -836.16)"/><path class="a" d="M2440.3,992.724a2.965,2.965,0,0,1-2.677,1.9c-1.655,0-2.8-1.313-2.8-3.554,0-2.628,1.436-3.99,4.089-3.991h1.341v-1.534c0-1.873-.706-2.676-2.044-2.677a3.089,3.089,0,0,0-2.58,1.339l-.317-1.094a3.649,3.649,0,0,1,2.9-1.242c2.019,0,3.165,1.119,3.165,3.552v6.693a9.034,9.034,0,0,0,.267,2.263h-1.046A7.156,7.156,0,0,1,2440.3,992.724Zm-.047-1.436V987.9h-1.314c-2.02,0-2.994.925-2.994,3.067,0,1.729.755,2.725,1.923,2.725C2439.008,993.7,2439.811,992.6,2440.249,991.289Z" transform="translate(-2321.04 -935.987)"/><path class="a" d="M2629.593,999.307h-1.143V987.04h1.144v5.769l4.112-5.768h1.121l-4.042,5.7,4.332,6.57h-1.265l-4.26-6.355Z" transform="translate(-2505.621 -940.915)"/><path class="a" d="M2788.108,992.282l.365.95a3.464,3.464,0,0,1-2.823,1.362c-2.458,0-3.87-2.36-3.87-6.351,0-4.04,1.386-6.4,3.894-6.4a3.308,3.308,0,0,1,2.678,1.144l-.318,1.218a2.914,2.914,0,0,0-2.36-1.388c-1.875,0-2.751,1.971-2.751,5.426,0,3.359.853,5.356,2.751,5.355A3.094,3.094,0,0,0,2788.108,992.282Z" transform="translate(-2651.786 -935.958)"/><path class="a" d="M2967.8,990.727a16.486,16.486,0,0,1,.1-1.679h-.073a10.912,10.912,0,0,1-.657,1.58l-3.992,8.641h-.974V987h1.07v8.518a17.269,17.269,0,0,1-.1,1.729h.074a13.5,13.5,0,0,1,.654-1.63l4-8.62h1v12.267h-1.1Z" transform="translate(-2823.775 -940.877)"/></svg>