<svg xmlns="http://www.w3.org/2000/svg" width="180.802" height="52.353" viewBox="0 0 180.802 52.353"><g transform="translate(0 0.001)"><path d="M13.993.3l5.16,18.231h.085L24.3.3H38.255V34.643H28.243V10.09h-.12L21.631,34.643H14.95L8.235,10.09h-.1V34.643H0V.3Z" transform="translate(0 0.213)"/><path d="M48.239.3,59.02,34.643H48.188l-1.811-6.834H36.928l-1.845,6.834H26.54L37.133.3ZM44.412,20.444h0L41.678,10.4,38.944,20.461Z" transform="translate(18.806 0.213)"/><path d="M68.079.3V21.794a31.062,31.062,0,0,1-.444,6.2,9.466,9.466,0,0,1-1.555,3.588,8.218,8.218,0,0,1-3.605,2.682,16.044,16.044,0,0,1-5.792.888H54.188a10.67,10.67,0,0,1-2.067-.205l-2.46-.5v-8.1c.735.188,1.452.308,2.136.427a12.3,12.3,0,0,0,1.828.154,5.126,5.126,0,0,0,1.914-.325,2.836,2.836,0,0,0,1.3-1.076,4.459,4.459,0,0,0,.564-1.572,14.812,14.812,0,0,0,.188-2.495V.3Z" transform="translate(35.188 0.213)"/><path d="M80.909,0a17.974,17.974,0,0,1,6.219,1.042,14.335,14.335,0,0,1,4.887,2.922,15.377,15.377,0,0,1,3.827,5.673,21.152,21.152,0,0,1,1.435,8.047,22.638,22.638,0,0,1-1.23,7.347,15.617,15.617,0,0,1-3.229,5.724,13.823,13.823,0,0,1-5.126,3.417,18.265,18.265,0,0,1-6.732,1.2,18.555,18.555,0,0,1-6.185-.974,13.976,13.976,0,0,1-4.938-3.075,15.583,15.583,0,0,1-3.964-5.912,21.425,21.425,0,0,1-1.281-7.723A20.9,20.9,0,0,1,66.13,9.347a15.275,15.275,0,0,1,4.289-5.929A14.933,14.933,0,0,1,75.032.923,17.718,17.718,0,0,1,80.909,0Zm0,7.5h0a3.861,3.861,0,0,0-2.375.735A5.28,5.28,0,0,0,76.826,10.3a11.312,11.312,0,0,0-.837,2.87,25.476,25.476,0,0,0-.325,4.306,26.43,26.43,0,0,0,.325,4.357,11.823,11.823,0,0,0,.837,2.956,5.707,5.707,0,0,0,1.709,2.119,4.1,4.1,0,0,0,4.733,0,5.348,5.348,0,0,0,1.709-2.119,10.525,10.525,0,0,0,.82-2.939A25.952,25.952,0,0,0,86.12,17.5a25.011,25.011,0,0,0-.325-4.306,10.08,10.08,0,0,0-.906-2.939,5.262,5.262,0,0,0-1.709-2.067,3.844,3.844,0,0,0-2.29-.683Z" transform="translate(45.765 0)"/><path d="M87.82.3h17.393a19.973,19.973,0,0,1,5.912.786,9.517,9.517,0,0,1,4.135,2.46,9.107,9.107,0,0,1,1.914,3.075,11.106,11.106,0,0,1,.7,4,10.405,10.405,0,0,1-1.606,5.912,8.423,8.423,0,0,1-4.323,3.417l6.629,14.779H106.922L101.9,21.9h-3.52V34.644H87.82ZM98.379,7.8h0V14.38h4.8a5.9,5.9,0,0,0,1.862-.256,3.417,3.417,0,0,0,1.213-.666,3.041,3.041,0,0,0,.752-1.008,3.2,3.2,0,0,0,.256-1.316,3.417,3.417,0,0,0-.239-1.3,2.751,2.751,0,0,0-.666-.991,3.075,3.075,0,0,0-1.3-.752,6.612,6.612,0,0,0-1.965-.256Z" transform="translate(62.228 0.212)"/><path d="M4.049,32.126H3.417L2.9,30.639h-1.9L.564,32.126H0L1.709,27h.683Zm-1.3-1.948-.786-2.495L1.179,30.11Z" transform="translate(0 19.132)"/><path d="M5.12,32.128V27h2a1.5,1.5,0,0,1,1.128.376,1.179,1.179,0,0,1,.359.854A1.128,1.128,0,0,1,7.7,29.377a1.435,1.435,0,0,1,.8.5,1.3,1.3,0,0,1,.256.8,1.35,1.35,0,0,1-.41,1.008,1.709,1.709,0,0,1-1.247.41Zm.615-2.888H6.846a1.213,1.213,0,0,0,.923-.256.923.923,0,0,0,.222-.615.7.7,0,0,0-.239-.564,1.093,1.093,0,0,0-.735-.222h-1.3Zm0,2.341H7.1a1.145,1.145,0,0,0,.769-.239.82.82,0,0,0,.273-.632,1.111,1.111,0,0,0-.12-.513.871.871,0,0,0-.342-.359,1.384,1.384,0,0,0-.666-.12h-1.3Z" transform="translate(3.628 19.13)"/><path d="M11.857,32.126h-.632V27.564H9.79V27h3.554v.564H11.857Z" transform="translate(6.937 19.132)"/><path d="M16.378,32.178a1.709,1.709,0,0,1-1.521-.752,3.11,3.11,0,0,1-.547-1.862,3.058,3.058,0,0,1,.564-1.9,1.914,1.914,0,0,1,3.024,0,2.956,2.956,0,0,1,.564,1.862,3.229,3.229,0,0,1-.547,1.879A1.709,1.709,0,0,1,16.378,32.178Zm0-.513a1.162,1.162,0,0,0,1.042-.615A2.87,2.87,0,0,0,17.8,29.5a2.614,2.614,0,0,0-.393-1.521,1.213,1.213,0,0,0-1.042-.547,1.162,1.162,0,0,0-1.025.6,2.768,2.768,0,0,0-.376,1.538,2.717,2.717,0,0,0,.376,1.521,1.179,1.179,0,0,0,1.059.632Z" transform="translate(10.139 19.08)"/><path d="M24.542,32.126h-.615V27.632l-1.709,4.425h-.29L20.22,27.632v4.494h-.53V27h.94l1.538,4.049L23.637,27h.94Z" transform="translate(13.952 19.132)"/><path d="M27.518,32.182A1.709,1.709,0,0,1,26,31.431a3.127,3.127,0,0,1-.547-1.862,3.024,3.024,0,0,1,.581-1.9,1.9,1.9,0,0,1,3.024,0,2.956,2.956,0,0,1,.564,1.862,3.229,3.229,0,0,1-.547,1.879,1.709,1.709,0,0,1-1.555.769Zm0-.513a1.162,1.162,0,0,0,1.042-.615,2.87,2.87,0,0,0,.376-1.555,2.614,2.614,0,0,0-.393-1.521,1.2,1.2,0,0,0-1.042-.547,1.179,1.179,0,0,0-1.025.6,2.768,2.768,0,0,0-.376,1.538,2.7,2.7,0,0,0,.393,1.521,1.179,1.179,0,0,0,1.025.632Z" transform="translate(18.033 19.076)"/><path d="M30.8,32.126V27h2.922v.564H31.415V29.1h.906a3.946,3.946,0,0,1,1.076.12,1.059,1.059,0,0,1,.615.5,1.709,1.709,0,0,1,.239.923,1.4,1.4,0,0,1-.41,1.059,1.709,1.709,0,0,1-1.247.393Zm.615-.564h1.162c.7,0,1.042-.308,1.042-.94a.888.888,0,0,0-.256-.7,1.333,1.333,0,0,0-.871-.222H31.415Z" transform="translate(21.824 19.132)"/><path d="M36.372,31.647v.478H35.74V27h.632v3.93A9.686,9.686,0,0,1,37,29.956l1.828-2.477V27h.632v5.126h-.632V28.2a7.108,7.108,0,0,1-.632.974Z" transform="translate(25.325 19.132)"/><path d="M41.248,32.126h-.6L42.359,27h.906l1.709,5.126h-.7L42.94,27.735h-.188Z" transform="translate(28.804 19.132)"/><path d="M45.85,32.126V27h.632v2.016h.82a3.127,3.127,0,0,1,1.179.154,1.179,1.179,0,0,1,.547.513,1.709,1.709,0,0,1,.205.871,1.486,1.486,0,0,1-.41,1.128,1.709,1.709,0,0,1-1.247.393Zm.632-.564h1.093a1.094,1.094,0,0,0,.8-.256.991.991,0,0,0,.239-.718c0-.632-.342-.957-1.042-.957H46.482Z" transform="translate(32.489 19.132)"/><path d="M54.286,32.126h-.632V29.648H51.262v2.477H50.63V27h.632v2.1h2.392V27h.632Z" transform="translate(35.876 19.132)"/><path d="M55.91,32.126V27h.632v2.016h.82a3.144,3.144,0,0,1,1.179.154,1.2,1.2,0,0,1,.547.513,1.709,1.709,0,0,1,.205.871,1.486,1.486,0,0,1-.41,1.128,1.709,1.709,0,0,1-1.247.393Zm.632-.564h1.093a1.093,1.093,0,0,0,.8-.256,1.008,1.008,0,0,0,.239-.718c0-.632-.342-.957-1.042-.957H56.542Zm3.417.564V27h.632v5.126Z" transform="translate(39.617 19.132)"/><path d="M62.462,32.257v.478H61.83V27.609h.632v3.93a9.687,9.687,0,0,1,.632-.974l1.828-2.477v-.478h.615v5.126h-.632v-3.93a7.141,7.141,0,0,1-.632.974Zm.1-6.1h.427a.6.6,0,0,0,.666.5c.41,0,.632-.171.7-.5h.427a.991.991,0,0,1-1.059.957,1.025,1.025,0,0,1-1.162-.974Z" transform="translate(43.812 18.523)"/><path d="M77.409,27l-1.452,2.324,1.709,2.8h-.718L75.615,29.9l-1.367,2.221h-.6l1.709-2.631L73.872,27h.718L75.7,28.879,76.845,27Z" transform="translate(52.187 19.132)"/><path d="M80.508,32.178a1.709,1.709,0,0,1-1.521-.752,3.144,3.144,0,0,1-.547-1.862,3.058,3.058,0,0,1,.564-1.9,1.914,1.914,0,0,1,3.024,0,2.956,2.956,0,0,1,.564,1.862,3.212,3.212,0,0,1-.547,1.879,1.709,1.709,0,0,1-1.538.769Zm0-.513a1.162,1.162,0,0,0,1.042-.615,2.87,2.87,0,0,0,.376-1.555,2.614,2.614,0,0,0-.393-1.521,1.213,1.213,0,0,0-1.042-.547,1.162,1.162,0,0,0-1.025.6,2.768,2.768,0,0,0-.376,1.538,2.717,2.717,0,0,0,.376,1.521,1.2,1.2,0,0,0,1.042.632Z" transform="translate(55.58 19.08)"/><path d="M83.968,32.126h-.6L85.079,27h.906l1.709,5.126h-.7L85.66,27.735h-.188Z" transform="translate(59.075 19.132)"/><path d="M88.43,31.511,89.9,27h1.059l1.486,4.511h.308v1.709H92.24V32.143H88.823v1.076H88.31V31.511Zm.6,0h2.734L90.531,27.5h-.273Z" transform="translate(62.575 19.132)"/><path d="M94.262,31.647v.478H93.63V27h.632v3.93a9.673,9.673,0,0,1,.632-.974l1.828-2.477V27h.632v5.126h-.632V28.2a7.2,7.2,0,0,1-.632.974Z" transform="translate(66.345 19.132)"/><path d="M102.481,32.126h-.632V29.648H99.542v2.477H98.91V27h.632v2.1H101.9V27h.581Z" transform="translate(70.086 19.132)"/><path d="M104.13,32.126V27h2.614v.564h-1.965v4.562Z" transform="translate(73.785 19.132)"/></g></svg>