<svg xmlns="http://www.w3.org/2000/svg" width="25.258" height="25.258" viewBox="0 0 25.258 25.258">
    <path d="M0,0V25.258H25.258V0ZM20.868,18.728A3.057,3.057,0,0,1,16.522,20.8a21.921,21.921,0,0,1-7.339-4.747A21.922,21.922,0,0,1,4.436,8.715,3.057,3.057,0,0,1,6.51,4.369a1.581,1.581,0,0,1,1.084,0c.869.32,3.07,3.349,3.119,4.256a1.571,1.571,0,0,1-.9,1.39A1.579,1.579,0,0,0,9.3,12.23a7.3,7.3,0,0,0,1.487,2.223,7.3,7.3,0,0,0,2.223,1.487,1.579,1.579,0,0,0,2.215-.512,1.571,1.571,0,0,1,1.39-.9c.906.049,3.936,2.25,4.256,3.119A1.582,1.582,0,0,1,20.868,18.728ZM18,10.887a3.9,3.9,0,0,0-1.154-2.4A4.133,4.133,0,0,0,14.3,7.276a3.659,3.659,0,0,0-.777.015.583.583,0,0,1-.148-1.156,4.832,4.832,0,0,1,1.026-.02,5.3,5.3,0,0,1,3.276,1.548,5.065,5.065,0,0,1,1.491,3.124,4.518,4.518,0,0,1-.019.958.583.583,0,0,1-.577.509.6.6,0,0,1-.074,0,.583.583,0,0,1-.5-.652A3.354,3.354,0,0,0,18,10.887Zm-1.936.168A2.188,2.188,0,0,0,14.13,9.211a1.8,1.8,0,0,0-.229-.005.583.583,0,1,1-.048-1.165,3,3,0,0,1,.377.009,3.323,3.323,0,0,1,3,2.9,2.643,2.643,0,0,1,0,.407.583.583,0,0,1-.581.543h-.04a.583.583,0,0,1-.542-.621A1.479,1.479,0,0,0,16.069,11.054Zm4.963,1.223a.583.583,0,1,1-1.149-.2,5.281,5.281,0,0,0,.057-1.359,5.844,5.844,0,0,0-1.716-3.607A6.078,6.078,0,0,0,14.465,5.34a5.576,5.576,0,0,0-1.356.047.583.583,0,1,1-.183-1.151,6.75,6.75,0,0,1,1.639-.057,7.246,7.246,0,0,1,4.483,2.109,7.011,7.011,0,0,1,2.053,4.33A6.445,6.445,0,0,1,21.031,12.277Z"/>
</svg>
